<?xml version="1.0" standalone="no"?>
<!DOCTYPE svg PUBLIC "-//W3C//DTD SVG 1.1//EN" "http://www.w3.org/Graphics/SVG/1.1/DTD/svg11.dtd" >
<svg xmlns="http://www.w3.org/2000/svg">
<metadata></metadata>
<defs>
<font id="wdb_bangnaregular" horiz-adv-x="1150" >
<font-face units-per-em="2048" ascent="1638" descent="-410" />
<missing-glyph horiz-adv-x="690" />
<glyph unicode="&#x3b;&#x3b;For&#x20;Education&#x20;Used&#x20;Only&#x3b;&#x3b;" horiz-adv-x="1669" d="M82 539q0 156 59.5 293t162 239.5t239.5 161.5t293 59t293 -59t238 -161.5t160.5 -240t59.5 -292.5q0 -156 -59.5 -293t-160.5 -238.5t-238.5 -161t-292.5 -59.5q-156 0 -293 59.5t-239.5 161t-162 238.5t-59.5 293zM180 539q0 -135 51.5 -255t140.5 -209t209 -140.5 t255 -51.5t253.5 51.5t207.5 140.5t140.5 208.5t51.5 255.5q0 135 -51.5 253.5t-140.5 208t-207.5 140.5t-253.5 51t-255 -51t-209 -140.5t-140.5 -208t-51.5 -253.5zM383 453v172q0 94 36 177t97.5 144.5t143 97t176.5 35.5q94 0 176 -35.5t143.5 -97t97 -143.5t35.5 -176 h-98q0 74 -27.5 138t-76 112.5t-113 76t-137.5 27.5q-74 0 -138.5 -27.5t-112.5 -77t-76 -114t-28 -137.5v-172q0 -74 28 -138.5t76 -112.5t112.5 -76t138.5 -28t138 28t112.5 76t76 112.5t27.5 138.5h98q0 -94 -35.5 -176t-97 -143.5t-143.5 -97.5t-176 -36t-176 36 t-143.5 97.5t-97.5 143t-36 176.5z" />
<glyph unicode="&#x3b;&#x3b;Registered&#x3b;&#x3b;" horiz-adv-x="1669" d="M82 539q0 156 59.5 293t162 239.5t238.5 161.5t292 59t293 -59t239 -161.5t161.5 -240t59.5 -292.5q0 -156 -59.5 -292t-161.5 -238.5t-239.5 -162t-292.5 -59.5q-156 0 -292 59.5t-238.5 162t-162 238.5t-59.5 292zM180 539q0 -135 51.5 -254t140.5 -208t208 -140.5 t254 -51.5t254.5 51.5t208.5 140.5t140.5 207.5t51.5 254.5q0 135 -51.5 253.5t-140.5 208t-208.5 141.5t-254.5 52t-254 -52t-208 -141.5t-140.5 -208t-51.5 -253.5zM492 14v99v391v98v393v99h61h39h254h98h64h14q57 -2 109.5 -26t90.5 -63.5t60.5 -92t22.5 -111.5 q0 -6 -1 -12.5t-1 -12.5q-10 -115 -95 -192h2q-53 -51 -127 -70l177 -465l-93 -35l-186 490h-25h-12h-2h-96h-180h-76v-391v-99h-98zM590 602h57h199h96h2h64h2q39 0 77 16q49 23 81 67t36 99v15v2q0 39 -15 74.5t-42 62.5t-62.5 42t-74.5 15h-2h-64h-98h-199h-57v-393z" />
<glyph unicode="&#x3b;&#x3b;Trademark&#x3b;&#x3b;" horiz-adv-x="1245" d="M82 1192v33v32v33h33h137h33h131h33v-33v-32v-33h-33h-101v-510v-33h-32h-33h-33v33v510h-102h-33zM627 649v33v575v33h32h35h23l8 -22l152 -437l147 433v26h33h33h32v-33v-575v-33h-32h-33h-33v33v279l-98 -289l-6 -23h-25h-2h-33h-2h-22l-9 23l-102 293v-283v-33h-33 h-33h-32z" />
<glyph unicode="&#x3b;&#x3b;Multiply&#x3b;&#x3b;" horiz-adv-x="890" d="M123 410l254 252l-254 251l70 70l253 -252l252 252l70 -70l-252 -251l252 -252l-70 -70l-252 252l-253 -252z" />
<glyph unicode="&#x3b;&#x3b;Divide&#x3b;&#x3b;" horiz-adv-x="886" d="M123 612v99h641v-99h-641zM369 479q0 31 21.5 52.5t51.5 21.5q31 0 52.5 -21.5t21.5 -52.5t-21.5 -52t-52.5 -21t-52 21.5t-21 51.5zM369 844q0 31 21.5 52.5t51.5 21.5q31 0 52.5 -21.5t21.5 -52.5t-21.5 -52.5t-52.5 -21.5t-52 21.5t-21 52.5z" />
<glyph unicode="&#x2018;&#x2018;" horiz-adv-x="593" d="M123 1081v41q2 16 5 31.5t9 30.5q8 23 22.5 39t30.5 32q18 14 37 23q2 0 23 8q8 4 20 6v-102q-25 -12 -43 -43q43 -20 43 -66q0 -31 -21.5 -52t-51.5 -21q-18 0 -31 6q-23 10 -31 27.5t-12 39.5zM324 1081v41q2 16 5 31.5t9 30.5q8 23 22.5 39t30.5 32q18 14 37 23 q2 0 23 8q8 4 20 6v-102q-25 -12 -43 -43q43 -20 43 -66q0 -31 -21.5 -52t-52.5 -21q-18 0 -30 6q-23 10 -31 27.5t-12 39.5z" />
<glyph unicode="&#x2019;&#x2019;" horiz-adv-x="593" d="M123 1008v102q31 14 43 41q-43 20 -43 68q0 31 21.5 52t52.5 21q14 0 30 -8q23 -10 32 -26.5t11 -38.5v-43q-2 -14 -5 -30t-7 -30q-14 -41 -55 -72q-16 -16 -37 -24q-2 -2 -23 -6q-8 -2 -20 -6zM324 1008v102q31 14 43 41q-43 20 -43 68q0 31 21.5 52t51.5 21q14 0 31 -8 q23 -10 32 -26.5t11 -38.5v-43q-2 -14 -5 -30t-7 -30q-14 -41 -56 -72q-16 -16 -36 -24q-2 -2 -23 -6q-8 -2 -20 -6z" />
<glyph unicode="&#xe24;&#xe32;" horiz-adv-x="1970" d="M123 922l55 110l6 12q55 111 163 179.5t241 68.5t239.5 -68.5t163.5 -179.5q55 111 163 179.5t241 68.5q94 0 176 -35.5t143.5 -97t97 -143.5t35.5 -176v-1389h-98v1389q0 74 -27.5 138t-76 112.5t-113 76t-137.5 27.5q-74 0 -137.5 -27.5t-111.5 -76t-77 -112 t-29 -136.5v-2v-840v-549h-98v549v840v4q0 72 -28.5 135t-77 111.5t-111.5 76t-137 27.5q-111 0 -197 -58.5t-127 -152.5l-43 -86l12 -82v-412v-124v-86q0 -51 19 -95h98h156v-98h-156h-151q-2 2 -2 3t-2 3q-12 16 -21.5 34.5t-17.5 37.5q-20 53 -21 115v647z" />
<glyph unicode="&#xe26;&#xe32;" horiz-adv-x="1951" d="M0 0v96h117v750l-13 80l56 110l6 13q57 111 163.5 177t239.5 66t241 -67.5t163 -177.5q57 111 163.5 178t239.5 67q94 0 176 -35.5t143.5 -97t97.5 -143.5t36 -176v-1389h-98v1389q0 74 -28 138t-76 112.5t-112.5 76t-138.5 27.5q-72 0 -134 -26.5t-109.5 -71.5 t-77 -105.5t-33.5 -130.5v-14v-6v-840v-549h-98v549v840v18q-2 70 -31 131.5t-77 106.5t-111.5 71.5t-135.5 26.5q-109 0 -195.5 -57.5t-127.5 -149.5l-43 -86l12 -80v2v-727v-80v-16h-215z" />
<glyph unicode="&#xd;" horiz-adv-x="579" />
<glyph unicode=" "  horiz-adv-x="690" />
<glyph unicode="&#x09;" horiz-adv-x="690" />
<glyph unicode="&#xa0;" horiz-adv-x="690" />
<glyph unicode="!" horiz-adv-x="393" d="M123 74q0 31 21.5 52t52.5 21t52 -21t21 -52t-21.5 -52.5t-51.5 -21.5q-31 0 -52.5 21.5t-21.5 52.5zM150 229v1164h98v-1164h-98z" />
<glyph unicode="&#x22;" horiz-adv-x="538" d="M123 1110v270h98v-270h-98zM317 1110v270h99v-270h-99z" />
<glyph unicode="#" horiz-adv-x="794" d="M41 506v98h152l57 125h-137v98h182l67 152l91 -41l-52 -111h138l67 150l90 -39l-49 -111h107v-98h-152l-55 -125h135v-98h-180l-68 -152l-90 41l49 111h-137l-68 -152l-90 41l52 111h-109zM301 604h137l56 125h-136z" />
<glyph unicode="$" horiz-adv-x="1153" d="M123 270h98q0 -72 50.5 -121t119.5 -49v-2h137h99h133q72 0 121 50.5t49 121.5q0 59 -36 104.5t-89 61.5l-10 2l-35 8l-412 97q-10 2 -17 4t-18 4q-113 35 -163 141q-27 57 -27 117q0 55 20.5 104.5t57.5 86t86 58t104 21.5h137v125h99v-125h133q55 0 104 -21.5t86 -58 t58.5 -86t21.5 -104.5h-98h-2q0 35 -13.5 66.5t-36 55t-53 37t-67.5 13.5h-133h-99h-137q-35 0 -66.5 -13.5t-54 -37t-36 -54t-13.5 -67.5q0 -57 33 -101t84 -61l29 -6l24 -6l420 -100q11 -1 23 -5q57 -16 100 -53t70 -88q27 -59 26 -119q0 -55 -21.5 -104t-58.5 -86 t-86 -58.5t-104 -21.5h-133v-125h-99v125h-137v2q-55 0 -104 20.5t-86 57.5t-57.5 86t-20.5 104z" />
<glyph unicode="%" horiz-adv-x="714" d="M31.5 891.5q21.5 -57.5 77.5 -82.5q55 -25 112.5 -3.5t81.5 77.5q27 55 5.5 112.5t-77.5 81.5q-57 27 -113 5.5t-83 -78.5q-25 -55 -3.5 -112.5zM68 178l491 1079l88 -38l-489 -1082zM122 927.5q-7 18.5 1 37.5q10 18 28.5 25t36.5 -1q18 -10 25.5 -28.5t-0.5 -36.5 q-10 -18 -28.5 -25.5t-37.5 0.5q-18 10 -25 28.5zM408.5 399.5q21.5 -57.5 76.5 -82.5t112.5 -3t82.5 77q27 55 5.5 112.5t-77.5 82.5q-57 27 -113 5t-83 -79q-25 -55 -3.5 -112.5zM499 436.5q-7 18.5 1 36.5q10 18 28.5 25.5t36.5 -0.5q18 -10 25.5 -29t-0.5 -37 q-10 -18 -28.5 -25.5t-37.5 1.5q-18 10 -25 28.5z" />
<glyph unicode="&#x26;" horiz-adv-x="1433" d="M123 453q0 88 31.5 166.5t85.5 138.5l7 7l7 7l117 84l155 115l-116 166l-58 80v2q-37 70 -37 155q0 72 28 135.5t75 110.5t109.5 74.5t134.5 27.5t135 -27.5t110 -74.5t75 -110.5t28 -135.5q0 -70 -26 -131t-69 -108q-6 -4 -18 -17l-63 -47l-172 -123l43 -61l323 -457 l41 -57l129 92l29 -39l28 -41l-131 -94l187 -262l-41 -29l-39 -29l-187 262l-176 -124q-14 -12 -29.5 -23.5t-31.5 -22.5q-10 -6 -21.5 -12t-21.5 -10q-88 -41 -189 -41q-94 0 -176 36t-143 97.5t-97 143t-36 176.5zM221 453q0 -74 27.5 -138.5t76 -112.5t113 -76t137.5 -28 q49 0 93.5 13.5t85.5 35.5l53 37l182 131l-63 88l-279 398l-63 88l-164 -119l-98 -70q-47 -49 -74 -112.5t-27 -134.5zM414 1374q0 -59 24 -108l45 -66l119 -168q6 0 8 -2l172 125l52 39q35 35 56 81t21 99q0 51 -19.5 97.5t-53 80t-79.5 53t-97 19.5t-96.5 -19.5t-79 -53 t-53 -80t-19.5 -97.5z" />
<glyph unicode="'" horiz-adv-x="344" d="M123 1110v270h98v-270h-98z" />
<glyph unicode="(" horiz-adv-x="577" d="M123 264v1194h2q0 94 36 176t97 143.5t143 97.5t177 36v-99q-74 0 -138.5 -27.5t-112.5 -75.5t-76 -112.5t-28 -138.5h-2v-1194h2q0 -74 28 -138.5t76 -112.5t111.5 -75.5t136.5 -27.5h3v-98q-94 0 -176.5 35.5t-143.5 97t-97 143.5t-36 176h-2z" />
<glyph unicode=")" horiz-adv-x="577" d="M0 -90h2q74 0 137.5 27.5t111.5 75.5t75.5 112.5t27.5 138.5h2v1194h-2q0 74 -27.5 138.5t-75.5 112.5t-112.5 75.5t-138.5 27.5v99q94 0 176 -36t143.5 -97.5t97.5 -143.5t36 -176h2v-1194h-2q0 -94 -36 -176t-97.5 -143.5t-143.5 -97t-176 -35.5v98z" />
<glyph unicode="*" horiz-adv-x="1058" d="M123 612v99h289l-205 202l69 70l205 -203v287h99v-287l202 203l70 -70l-203 -202h287v-99h-287l203 -202l-70 -70l-202 203v-289h-99v289l-205 -203l-69 70l205 202h-289z" />
<glyph unicode="+" horiz-adv-x="886" d="M123 612v99h270v270h99v-270h272v-99h-272v-272h-99v272h-270z" />
<glyph unicode="," horiz-adv-x="395" d="M123 -35q31 14 43 41q-43 20 -43 68q0 31 21.5 52t52.5 21t52 -21t21 -52v-44.5t-8 -43.5q-14 -47 -52 -80t-87 -43v102z" />
<glyph unicode="-" horiz-adv-x="956" d="M123 526v99h711v-99h-711z" />
<glyph unicode="." horiz-adv-x="393" d="M123 74q0 31 21.5 52t52.5 21t52 -21t21 -52t-21.5 -52.5t-51.5 -21.5q-31 0 -52.5 21.5t-21.5 52.5z" />
<glyph unicode="/" horiz-adv-x="897" d="M-20 -102l847 1845l91 -41l-848 -1845z" />
<glyph unicode="0" d="M123 453v596q0 94 36 176t97 143.5t143 97t176 35.5t177.5 -35.5t144.5 -97t96 -143.5t35 -176v-596q0 -94 -35 -176t-96 -143.5t-144 -97.5t-178 -36q-94 0 -176 36t-143 97.5t-97 143t-36 176.5zM221 453q0 -74 27.5 -138.5t76 -112.5t112.5 -76t138 -28t138.5 28 t112.5 76t76 112.5t28 138.5v596q0 74 -28 138t-76 112.5t-112.5 76t-138.5 27.5t-138 -27.5t-112.5 -76t-76 -113t-27.5 -137.5v-596z" />
<glyph unicode="1" horiz-adv-x="595" d="M123 1206v103q66 16 106.5 69.5t40.5 122.5h99h2v-1501h-99v1280q-31 -29 -68.5 -47.5t-80.5 -26.5z" />
<glyph unicode="2" horiz-adv-x="1157" d="M123 0v98l502 500l184 184l33 31q41 47 64.5 107.5t23.5 128.5q0 74 -28 138t-76 112.5t-112.5 76t-138.5 27.5t-138 -27.5t-112.5 -76t-76 -113t-27.5 -137.5h-98q0 94 36 176t97 143.5t143 97t176 35.5t176.5 -35.5t143.5 -97t97 -143.5t36 -176v-25.5t-2 -26.5 q-8 -72 -36.5 -134t-74.5 -113q-20 -23 -43 -43l-610 -609h772v-98h-911z" />
<glyph unicode="3" d="M123 455h98q0 -74 32 -138.5t85 -112.5t121.5 -76t142.5 -28q61 0 120.5 23.5t105.5 64.5t74 96.5t28 116.5q0 59 -21.5 111.5t-59.5 93.5t-88 66.5t-108 29.5h-73v99h49h14h6q57 4 108.5 28.5t90.5 65.5t60.5 94t21.5 113q0 61 -28 116.5t-74 96.5t-105 64.5t-121 23.5 q-74 0 -142.5 -27.5t-121.5 -76t-85 -113t-32 -137.5h-98q0 94 40 176t106.5 143.5t152.5 97t180 35.5q82 0 160 -31.5t136 -85t94 -127t36 -155.5q0 -115 -57.5 -207t-149.5 -143q92 -51 149.5 -143.5t57.5 -207.5q0 -84 -36 -156.5t-94 -125.5t-136 -85t-160 -32 q-94 0 -180 36t-152.5 97.5t-106.5 143t-40 176.5z" />
<glyph unicode="4" horiz-adv-x="1212" d="M82 160v98l811 1243h2h25h71v-1243h99v-98h-99v-160h-98v160h-762h-49zM199 258h694v1063z" />
<glyph unicode="5" horiz-adv-x="1157" d="M123 455h100q0 -74 28 -138.5t77 -113.5t113.5 -77t138.5 -28t138 28t113.5 77t77 113.5t27.5 138.5v170q0 74 -27.5 138t-77 113.5t-114 77t-137.5 27.5q-74 0 -138.5 -27.5t-113.5 -77t-77 -114t-28 -137.5h-100h2v876h98h811v-98h-811v-496q61 78 153.5 125t203.5 47 q94 0 177 -35.5t144.5 -97t97 -144.5t35.5 -177v-170q0 -94 -35.5 -177t-97 -144.5t-144.5 -97.5t-177 -36t-177.5 36t-144.5 97.5t-98 144t-37 177.5z" />
<glyph unicode="6" d="M123 453q0 92 35 174v2l362 872h107l-271 -653q98 57 219 57q94 0 176.5 -35.5t143.5 -97t97 -143.5t36 -176t-36 -176t-97 -143.5t-143 -97.5t-177 -36q-78 0 -147.5 24.5t-126.5 68.5t-99 103.5t-63 131.5q-16 61 -16 125zM221 453q0 -74 27.5 -138.5t76 -112.5 t113 -76t137.5 -28q74 0 138.5 28t112.5 76t76 112.5t28 138.5t-28 138t-76 112.5t-112.5 76t-138.5 27.5t-138 -27.5t-112.5 -76t-76 -113t-27.5 -137.5z" />
<glyph unicode="7" horiz-adv-x="1116" d="M82 1403v98h911v-98l-581 -1403h-107l582 1403h-764h-41z" />
<glyph unicode="8" d="M123 453q0 68 19.5 131t54 116.5t83 95.5t107.5 68q-72 47 -115 123t-43 168q0 72 28 134.5t75 109.5t109.5 74.5t133.5 27.5q72 0 134.5 -27.5t109.5 -74.5t75 -109.5t28 -134.5q0 -92 -42 -168t-114 -123q117 -53 189.5 -163.5t72.5 -247.5q0 -94 -36 -176t-97 -143.5 t-143 -97.5t-177 -36q-94 0 -176 36t-143 97.5t-97 143t-36 176.5zM221 453q0 -74 27.5 -138.5t76 -112.5t113 -76t137.5 -28q74 0 138.5 28t112.5 76t76 112.5t28 138.5t-28 138t-76 112.5t-112.5 76t-138.5 27.5t-138 -27.5t-112.5 -76t-76 -113t-27.5 -137.5zM328 1155 q0 -51 18.5 -96t51 -79t76.5 -53.5t93 -21.5h8h9q49 2 93 21.5t76.5 53.5t51 79t18.5 96t-19.5 96t-53 79t-78.5 53.5t-97 19.5q-51 0 -96 -19.5t-78.5 -53.5t-53 -79t-19.5 -96z" />
<glyph unicode="9" d="M123 1049q0 94 36 176t97 143.5t143 97t176 35.5q78 0 148 -24.5t127 -68.5t98 -104.5t62 -132.5q18 -59 18 -122q0 -90 -35 -177h-2l-360 -872h-107l271 651q-49 -27 -105 -41t-115 -14q-94 0 -176 36t-143 97.5t-97 143t-36 176.5zM221 1049q0 -74 27.5 -138.5 t76 -112.5t113 -76t137.5 -28q74 0 138.5 28t112.5 76t76 112.5t28 138.5t-28 138t-76 112.5t-112.5 76t-138.5 27.5t-138 -27.5t-112.5 -76t-76 -112.5t-27.5 -138z" />
<glyph unicode=":" horiz-adv-x="393" d="M123 326q0 31 21.5 52t52.5 21t52 -21t21 -52t-21.5 -52.5t-51.5 -21.5q-31 0 -52.5 21.5t-21.5 52.5zM123 934q0 31 21.5 52.5t52.5 21.5t52 -21.5t21 -52.5t-21.5 -52.5t-51.5 -21.5q-31 0 -52.5 21.5t-21.5 52.5z" />
<glyph unicode=";" horiz-adv-x="395" d="M123 94q49 10 87 43t52 80q8 23 8 44v44q0 31 -21.5 52.5t-51.5 21.5q-31 0 -52.5 -21.5t-21.5 -52.5q0 -47 43 -67q-12 -27 -43 -41v-103zM123 934q0 31 21.5 52.5t52.5 21.5t52 -21.5t21 -52.5t-21.5 -52.5t-51.5 -21.5q-31 0 -52.5 21.5t-21.5 52.5z" />
<glyph unicode="&#x3c;" horiz-adv-x="768" d="M123 653l70 70l382 383l70 -70l-383 -383l383 -385l-70 -69l-382 385z" />
<glyph unicode="=" horiz-adv-x="886" d="M123 510v98h641v-98h-641zM123 713v98h641v-98h-641z" />
<glyph unicode="&#x3e;" horiz-adv-x="768" d="M123 268l383 385l-383 383l70 70l382 -383l70 -70l-70 -69l-382 -385z" />
<glyph unicode="?" horiz-adv-x="843" d="M123 1094q0 61 23.5 116.5t63.5 95.5t95 63.5t117 23.5q61 0 116.5 -23.5t95.5 -63.5t63.5 -95.5t23.5 -116.5q0 -88 -33 -171t-98 -149q-49 -49 -77 -113.5t-28 -138.5v-293h-98v293q0 94 35 176t96 144q53 53 79 117.5t26 134.5q0 84 -57.5 142t-143.5 58 q-84 0 -141.5 -58t-57.5 -142h-100zM362 74q0 31 22 52t52 21q31 0 52.5 -21t21.5 -52t-21.5 -52.5t-52.5 -21.5t-52.5 21.5t-21.5 52.5z" />
<glyph unicode="@" horiz-adv-x="1669" d="M82 539q0 156 59.5 293t162 239.5t238.5 161.5t292 59t293 -59t239 -161.5t161.5 -239.5t59.5 -293q0 -211 -94 -295q-53 -49 -129 -49q-6 0 -12 1t-13 1q-57 6 -90 43q-10 -18 -21 -36t-26 -34v2q-53 -70 -131 -115t-170 -55h-12h-2q-6 0 -10 -2h-3h-12h-2h-12h-129 q-68 0 -126 25.5t-101 69.5t-69 102.5t-26 126.5q0 98 49 172q59 98 168 133q6 4 13.5 5t13.5 3l338 100l51 15l25 6q53 23 90 61q-47 72 -125 117t-172 45q-74 0 -138.5 -27.5t-112.5 -76t-75.5 -113t-27.5 -137.5h-99q0 94 36 176t97.5 143.5t143.5 97t176 35.5 q106 0 196.5 -44t151.5 -120q20 -23 35.5 -48t30.5 -54h-2q41 -88 40 -186v-158v-16v-23q0 -10 -1 -19.5t-3 -19.5q0 -18 4.5 -40.5t16.5 -39.5q10 -12 33 -16q45 -6 77 20q29 29 46.5 86.5t17.5 137.5q0 137 -51 256.5t-140.5 209t-209 140.5t-254.5 51t-255 -51 t-209 -140.5t-141.5 -209t-52.5 -256.5q0 -135 52.5 -255t141.5 -209t208.5 -140.5t255.5 -51.5q135 0 253.5 51.5t208.5 141.5l68 -68q-102 -104 -238.5 -162.5t-293.5 -58.5q-156 0 -292 59.5t-238.5 162t-162 238.5t-59.5 292zM496 324q0 -47 17 -87t48 -71t71 -49.5 t87 -18.5h129q43 1 88 11q104 29 175 105.5t87 182.5q2 10 2 16.5t2 8.5v31v174q0 51 -12 98q-47 -41 -107 -59q-6 -4 -13 -5.5t-15 -5.5l-336 -98l-57 -16l-11 -2q-68 -23 -111.5 -81.5t-43.5 -133.5z" />
<glyph unicode="A" horiz-adv-x="1191" d="M82 0l440 1501h74h74l440 -1501h-102l-97 326h-630l-97 -326h-102zM309 424h574l-287 979z" />
<glyph unicode="B" horiz-adv-x="1208" d="M123 0v1501h49h49h406q82 0 155.5 -31.5t128 -86t86 -128t31.5 -155.5q0 -100 -45 -184.5t-121 -139.5q57 -20 105.5 -57t84 -86t55 -108.5t19.5 -125.5q0 -84 -31.5 -156.5t-86 -126t-128 -85t-155.5 -31.5h-504h-98zM221 98h504q63 0 118.5 23.5t96.5 64.5t64.5 96.5 t23.5 116.5q0 63 -23.5 117.5t-65.5 95.5t-97.5 64.5t-116.5 23.5h-504v-602zM221 799h406q63 0 118.5 23.5t96.5 64.5t64.5 96t23.5 117q0 63 -23.5 118.5t-64.5 96.5t-96.5 64.5t-118.5 23.5h-406v-604z" />
<glyph unicode="C" d="M123 453v596q0 94 36 176t97 143.5t143 97t176 35.5t176.5 -35.5t143.5 -97t97 -143.5t36 -176h-98q0 74 -28 138t-76 112.5t-112.5 76t-138.5 27.5t-138 -27.5t-112.5 -76t-76 -113t-27.5 -137.5v-596q0 -74 27.5 -138.5t76 -112.5t113 -76t137.5 -28q74 0 138.5 28 t112.5 76t76 112.5t28 138.5h98q0 -94 -36 -176t-97 -143.5t-143 -97.5t-177 -36q-94 0 -176 36t-143 97.5t-97 143t-36 176.5z" />
<glyph unicode="D" d="M123 0v1501h98h354q94 0 176.5 -35.5t143.5 -97t97 -143.5t36 -176v-596q0 -94 -36 -176t-97 -143.5t-143 -97.5t-177 -36h-354h-98zM221 98h354q74 0 138.5 28t112.5 76t76 112.5t28 138.5v596q0 74 -28 138t-76 112.5t-112.5 76t-138.5 27.5h-354v-1305z" />
<glyph unicode="E" d="M123 0v2v96v602v99v604v98h98h807v-98h-807v-602h807v-101h-807v-602h807v-98h-905z" />
<glyph unicode="F" d="M123 0v700v99v604v98h98h807v-98h-807v-602h807v-101h-807v-700h-98z" />
<glyph unicode="G" horiz-adv-x="1153" d="M123 453v600q0 94 36 176t97 143.5t144 97t178 35.5q94 0 176 -35.5t143 -97t97 -143.5t36 -176h-98q0 74 -27.5 138t-76 112.5t-113 76t-137.5 27.5q-74 0 -138.5 -27.5t-112.5 -76t-76 -113t-28 -137.5v-600q0 -74 28 -138.5t76 -112.5t112.5 -76t138.5 -28t138 28 t112.5 76t76 112.5t27.5 138.5v252h-354v100h452v-352q0 -94 -36 -176t-97 -143.5t-143 -97.5t-176 -36t-177.5 36t-144.5 97.5t-97 143t-36 176.5h2h-2z" />
<glyph unicode="H" horiz-adv-x="1153" d="M123 0v698v99v704h98v-702h709v702h100v-704v-99v-698h-100v698h-709v-698h-98z" />
<glyph unicode="I" horiz-adv-x="344" d="M123 0v1501h98v-1501h-98z" />
<glyph unicode="J" horiz-adv-x="1110" d="M82 453h98q0 -74 28 -138.5t76 -112.5t112.5 -76t138.5 -28t138 28t112.5 76t76 112.5t27.5 138.5v1048h98v-1048q0 -94 -36 -176t-97 -143.5t-143 -97.5t-176 -36t-176.5 36t-143.5 97.5t-97 143t-36 176.5z" />
<glyph unicode="K" horiz-adv-x="1007" d="M123 0v1501h98v-749l674 749h133l-674 -749l674 -750h-133l-608 676l-66 -74v-604h-98z" />
<glyph unicode="L" horiz-adv-x="1069" d="M123 0v98v1403h98v-1403h807v-98h-807h-98z" />
<glyph unicode="M" horiz-adv-x="1536" d="M123 0v1501h98l547 -1403l547 1403h98v-1501h-98v1229l-479 -1229h-68h-68l-479 1231v-1231h-98z" />
<glyph unicode="N" d="M123 0v1501h98l709 -1296v1296h98v-1476v-25h-98l-709 1296v-1296h-98z" />
<glyph unicode="O" d="M123 453v596q0 94 36 176t97 143.5t143 97t176 35.5t176.5 -35.5t143.5 -97t97 -143.5t36 -176v-596q0 -94 -36 -176t-97 -143.5t-143 -97.5t-177 -36q-94 0 -176 36t-143 97.5t-97 143t-36 176.5zM221 453q0 -74 27.5 -138.5t76 -112.5t113 -76t137.5 -28q74 0 138.5 28 t112.5 76t76 112.5t28 138.5v596q0 74 -28 138t-76 112.5t-112.5 76t-138.5 27.5t-138 -27.5t-112.5 -76t-76 -113t-27.5 -137.5v-596z" />
<glyph unicode="P" horiz-adv-x="1167" d="M123 0v1501h98h504q82 0 155.5 -31.5t128 -86t86 -128t31.5 -155.5q0 -84 -31.5 -157t-86 -126t-128 -85t-155.5 -32v2h-504v-702h-98zM221 801h504q63 0 118.5 23.5t96.5 63.5t64.5 95.5t23.5 116.5q0 63 -23.5 118.5t-64.5 96.5t-96.5 64.5t-118.5 23.5h-504v-602z" />
<glyph unicode="Q" d="M123 453v596q0 94 36 176t97 143.5t143 97t176 35.5t176.5 -35.5t143.5 -97t97 -143.5t36 -176v-596q0 -96 -37 -180.5t-102 -145.5q68 -29 139 -29v-98q-61 0 -118.5 15.5t-106.5 43.5q-51 -29 -108.5 -44t-119.5 -15q-94 0 -176 36t-143 97.5t-97 143t-36 176.5z M221 453q0 -74 27.5 -138.5t76 -112.5t113 -76t137.5 -28q74 0 138.5 28t112.5 76t76 112.5t28 138.5v596q0 74 -28 138t-76 112.5t-112.5 76t-138.5 27.5t-138 -27.5t-112.5 -76t-76 -113t-27.5 -137.5v-596z" />
<glyph unicode="R" horiz-adv-x="1167" d="M123 0v1501h98h504q82 0 155.5 -31.5t127 -86t85 -128t31.5 -155.5q0 -70 -22.5 -132.5t-61.5 -112.5t-93 -87t-118 -53l297 -713h-106l-291 698h-4v2h-504v-702h-98zM221 801h504q61 0 116.5 23.5t96.5 63.5t64.5 95t23.5 117q0 63 -23.5 118.5t-64.5 96.5t-95.5 64.5 t-117.5 23.5h-504v-602z" />
<glyph unicode="S" horiz-adv-x="1153" d="M123 453h98q0 -74 32 -138.5t86 -112.5t122.5 -76t142.5 -28q63 0 121.5 23.5t105 64.5t74 96.5t27.5 116.5q0 29 -8.5 57.5t-20.5 53.5q-35 70 -93 106.5t-127 56t-142.5 33t-137.5 35.5q-55 18 -106 54t-89 82.5t-60.5 103.5t-22.5 119q0 82 35 155.5t94 128t135 86 t160 31.5q94 0 181 -35.5t153.5 -97t106.5 -143.5t40 -176h-98q0 74 -32 138t-86 112.5t-122.5 76t-142.5 27.5q-63 0 -121.5 -23.5t-105 -64.5t-74 -96.5t-27.5 -118.5q0 -61 31 -113.5t76 -91.5q51 -45 111.5 -63.5t125.5 -30.5q66 -14 131.5 -28.5t124.5 -43.5 q43 -25 81 -59.5t66.5 -77.5t45 -92t16.5 -101q0 -84 -36 -156.5t-94 -126t-136 -85t-160 -31.5q-94 0 -181 36t-153.5 97.5t-106.5 143t-40 176.5z" />
<glyph unicode="T" horiz-adv-x="987" d="M41 1403v98h403h99h403v-98h-403v-1403h-99v1403h-403z" />
<glyph unicode="U" d="M123 453v1048h98v-1048q0 -74 27.5 -138.5t76 -112.5t113 -76t137.5 -28q74 0 138.5 28t112.5 76t76 112.5t28 138.5v1048h98v-1048q0 -94 -36 -176t-97 -143.5t-143 -97.5t-177 -36q-94 0 -176 36t-143 97.5t-97 143t-36 176.5z" />
<glyph unicode="V" horiz-adv-x="1110" d="M41 1501h102l412 -1403l412 1403h102l-440 -1501h-74h-74z" />
<glyph unicode="W" horiz-adv-x="2035" d="M41 1501h102l412 -1403l412 1403h102l412 -1403l411 1403h103l-441 -1501h-73h-74l-389 1327l-389 -1327h-74h-74z" />
<glyph unicode="X" horiz-adv-x="1105" d="M41 0l455 750l-455 751h115l397 -655l397 655h115l-455 -751l455 -750h-115l-397 655l-397 -655h-115z" />
<glyph unicode="Y" horiz-adv-x="1105" d="M41 1501h115l397 -655l397 655h115l-455 -751l-8 -13v-737h-98v737l-8 13z" />
<glyph unicode="Z" horiz-adv-x="1069" d="M82 0v98l790 1305h-790v98h905v-98l-790 -1305h790v-98h-850h-55z" />
<glyph unicode="[" horiz-adv-x="528" d="M123 -90v1905v98h98h307v-98h-307v-1905h307v-98h-307h-98v98z" />
<glyph unicode="\" horiz-adv-x="897" d="M-20 1702l90 41l848 -1845l-91 -41z" />
<glyph unicode="]" horiz-adv-x="528" d="M0 -90h307v1905h-307v98h307h99v-98v-1905v-98h-99h-307v98z" />
<glyph unicode="^" horiz-adv-x="948" d="M20 461l383 383l70 69l70 -69l385 -383l-70 -70l-385 383l-383 -383z" />
<glyph unicode="_" horiz-adv-x="903" d="M0 -49h903v-98h-903v98z" />
<glyph unicode="`" horiz-adv-x="507" d="M123 1307l70 69l192 -192l-70 -70z" />
<glyph unicode="a" d="M123 324q0 92 51 170q59 98 168 133q2 2 12.5 5l52.5 15t130 37t245 72q53 23 90 61q-47 74 -124.5 118t-172.5 44q-61 0 -115 -19.5t-99.5 -53.5t-77 -80t-47.5 -101h-103q16 76 57 140.5t99.5 111.5t132.5 73.5t153 26.5q104 0 195.5 -44t153.5 -120q37 -43 63 -102 q41 -88 41 -186v-172v-21q-4 -76 -29.5 -142.5t-68.5 -121.5q-53 -70 -131 -114t-170 -54h-183q-68 0 -126 25.5t-102 69.5t-69.5 102.5t-25.5 126.5zM223 322q0 -47 17.5 -87t48 -70t70.5 -48.5t87 -18.5h129q41 0 89 11q57 14 106 46.5t84 79t55.5 101.5t20.5 117v174 q0 53 -15 96q-47 -41 -104 -59q-4 -2 -13.5 -5.5t-51 -15.5t-126.5 -36.5t-241 -69.5q-68 -23 -112 -81.5t-44 -133.5z" />
<glyph unicode="b" d="M123 453v174v874h98v-594q63 78 154.5 125t199.5 47q94 0 176.5 -35.5t143.5 -97t97 -143.5t36 -176v-174q0 -94 -36 -176t-97 -143.5t-143 -97.5t-177 -36q-94 0 -176 36t-143 97.5t-97 143t-36 176.5zM221 453q0 -74 27.5 -138.5t76 -112.5t113 -76t137.5 -28 q74 0 138.5 28t112.5 76t76 112.5t28 138.5v174q0 74 -28 138t-76 112.5t-112.5 76t-138.5 27.5t-138 -27.5t-112.5 -76t-76 -113t-27.5 -137.5v-174z" />
<glyph unicode="c" horiz-adv-x="1112" d="M123 453v174q0 94 36 176t97 143.5t143 97t176 35.5q78 0 148 -24.5t127 -68.5t98 -104.5t62 -129.5h-103q-39 100 -128 164.5t-204 64.5q-74 0 -138 -27.5t-112.5 -76t-76 -113t-27.5 -137.5v-174q0 -74 27.5 -138.5t76 -112.5t113 -76t137.5 -28q115 0 203 63.5 t127 164.5h105q-20 -72 -62.5 -131.5t-98.5 -102.5t-126 -67.5t-148 -24.5q-94 0 -176 36t-143 97.5t-97 143t-36 176.5z" />
<glyph unicode="d" d="M123 453v174q0 94 36 176t97 143.5t143 97t176 35.5q109 0 201 -47t154 -125v594h98v-874v-174q0 -94 -36 -176t-97 -143.5t-143 -97.5t-177 -36q-94 0 -176 36t-143 97.5t-97 143t-36 176.5zM221 453q0 -74 27.5 -138.5t76 -112.5t113 -76t137.5 -28q74 0 138.5 28 t112.5 76t76 112.5t28 138.5v174q0 74 -28 138t-76 112.5t-112.5 76t-138.5 27.5t-138 -27.5t-112.5 -76t-76 -113t-27.5 -137.5v-174z" />
<glyph unicode="e" d="M123 453v174q0 94 36 176t97 143.5t143 97t176 35.5t176.5 -35.5t143.5 -97t97 -143.5t36 -176v-101h-594h-213v-73q0 -74 27.5 -138.5t76 -112.5t113 -76t137.5 -28q115 0 204 63.5t128 164.5h105q-20 -72 -62.5 -131.5t-99.5 -102.5t-127 -67.5t-148 -24.5 q-94 0 -176 36t-143 97.5t-97 143t-36 176.5zM221 627h709q0 74 -28 138t-76 112.5t-112.5 76t-138.5 27.5t-138 -27.5t-112.5 -76t-76 -113t-27.5 -137.5z" />
<glyph unicode="f" horiz-adv-x="866" d="M123 817v101h209v131q0 94 35.5 176t97 143.5t143.5 97t176 35.5v-98q-74 0 -138 -27.5t-112.5 -76t-76 -113t-27.5 -137.5v-131h354v-101h-354v-817h-98v817h-209z" />
<glyph unicode="g" horiz-adv-x="1153" d="M123 -225h98q0 -74 27.5 -138.5t76 -112.5t113 -76t137.5 -28q74 0 138.5 28t112.5 76t76 112.5t28 138.5v397q-61 -78 -153.5 -125t-201.5 -47q-94 0 -176 36t-143 97.5t-97 143t-36 176.5v174q0 94 36 176t97 143.5t143 97t176 35.5t177.5 -35.5t144.5 -97t97 -143.5 t36 -176v-174v-678q0 -94 -36 -177t-97 -144.5t-144 -96.5t-178 -35q-94 0 -176 36t-143 97.5t-97 143.5t-36 176zM221 453q0 -74 27.5 -138.5t76 -112.5t113 -76t137.5 -28q74 0 138.5 28t112.5 76t76 112.5t28 138.5v174q0 74 -28 138t-76 112.5t-112.5 76t-138.5 27.5 t-138 -27.5t-112.5 -76t-76 -113t-27.5 -137.5v-174z" />
<glyph unicode="h" horiz-adv-x="1153" d="M123 0v627v874h98v-594q63 78 154.5 125t199.5 47q94 0 177.5 -35.5t144.5 -97t97 -143.5t36 -176v-627h-98v627q0 74 -27.5 138t-77 112.5t-114 76t-138.5 27.5t-138 -27.5t-112.5 -76t-76 -113t-27.5 -137.5v-627h-98z" />
<glyph unicode="i" horiz-adv-x="344" d="M123 0v1079h98v-1079h-98zM123 1288v213h98v-213h-98z" />
<glyph unicode="j" horiz-adv-x="575" d="M0 -580q74 0 138.5 28t112.5 76t75.5 112.5t27.5 138.5v1304h99v-1304q0 -94 -36 -177t-97.5 -144.5t-143.5 -97.5t-176 -36v100zM354 1288v213h99v-213h-99z" />
<glyph unicode="k" horiz-adv-x="1007" d="M123 0v1501h98v-911l645 489h162l-709 -540l709 -539h-162l-628 477l-17 -12v-465h-98z" />
<glyph unicode="l" horiz-adv-x="344" d="M123 0v1501h98v-1501h-98z" />
<glyph unicode="m" horiz-adv-x="1536" d="M123 0v1079h98v-104q47 47 111.5 75.5t136.5 28.5q96 0 174 -46t125 -124q47 78 125 124t174 46q70 0 131.5 -25.5t107.5 -70.5t74.5 -104.5t32.5 -128.5v-750h-98v731q0 51 -19.5 97t-53.5 80t-79 53.5t-96 19.5q-53 0 -98 -19.5t-79 -53.5t-53.5 -80t-19.5 -97v-731 h-98v731q0 51 -19.5 97t-53.5 80t-80 53.5t-97 19.5t-96 -19.5t-79 -53.5t-53.5 -80t-19.5 -97v-731h-98z" />
<glyph unicode="n" d="M123 0v627v452h98v-170q63 78 154 124t200 46q94 0 176.5 -35.5t143.5 -97t97 -143.5t36 -176v-627h-98v627q0 74 -28 138t-76 112.5t-112.5 76t-138.5 27.5t-138 -27.5t-112.5 -76t-76 -113t-27.5 -137.5v-627h-98z" />
<glyph unicode="o" d="M123 453v174q0 94 36 176t97 143.5t143 97t176 35.5t176.5 -35.5t143.5 -97t97 -143.5t36 -176v-174q0 -94 -36 -176t-97 -143.5t-143 -97.5t-177 -36q-94 0 -176 36t-143 97.5t-97 143t-36 176.5zM221 453q0 -74 27.5 -138.5t76 -112.5t113 -76t137.5 -28q74 0 138.5 28 t112.5 76t76 112.5t28 138.5v174q0 74 -28 138t-76 112.5t-112.5 76t-138.5 27.5t-138 -27.5t-112.5 -76t-76 -113t-27.5 -137.5v-174z" />
<glyph unicode="p" d="M123 -453v906v174q0 94 35 176t96 143.5t144 97t177 35.5t176.5 -35.5t143.5 -97t97 -143.5t36 -176v-174q0 -94 -36 -176t-97 -143.5t-143 -97.5t-177 -36q-109 0 -200.5 47t-153.5 125v-625h-98zM221 453q0 -74 27.5 -138.5t76 -112.5t113 -76t137.5 -28q74 0 138.5 28 t112.5 76t76 112.5t28 138.5v174q0 74 -28 138t-76 112.5t-112.5 76t-138.5 27.5t-138 -27.5t-112.5 -76t-76 -113t-27.5 -137.5v-174z" />
<glyph unicode="q" d="M123 453v174q0 94 36 176t97 143.5t143 97t176 35.5t176.5 -35.5t143.5 -97t97 -143.5t36 -176v-174v-906h-98v625q-61 -78 -153.5 -125t-201.5 -47q-94 0 -176 36t-143 97.5t-97 143t-36 176.5zM221 453q0 -74 27.5 -138.5t76 -112.5t113 -76t137.5 -28q74 0 138.5 28 t112.5 76t76 112.5t28 138.5v174q0 74 -28 138t-76 112.5t-112.5 76t-138.5 27.5t-138 -27.5t-112.5 -76t-76 -113t-27.5 -137.5v-174z" />
<glyph unicode="r" horiz-adv-x="618" d="M123 0v627v452h100v-170q61 78 153.5 124t201.5 46v-98q-74 0 -138.5 -27.5t-112.5 -76t-76 -113t-28 -137.5v-627h-100z" />
<glyph unicode="s" horiz-adv-x="1073" d="M82 270h100q0 -72 49.5 -122t120.5 -50h369q72 0 121 50.5t49 121.5q0 59 -36 104.5t-91 61.5l-490 115q-113 35 -163 141q-29 53 -29 117q0 55 21.5 104.5t58.5 86t86 58t104 21.5h369q55 0 104 -21.5t86 -58t58.5 -86t21.5 -104.5h-100q0 72 -49 122t-121 50h-369 q-35 0 -66.5 -13.5t-55 -37t-37 -54t-13.5 -67.5q0 -57 33 -101t86 -61l496 -117q55 -16 99 -53t69 -88q26 -51 26 -114q0 -60 -20.5 -109t-57.5 -86t-86 -58.5t-104 -21.5h-369q-55 0 -104 21.5t-86 58.5t-58.5 86t-21.5 104z" />
<glyph unicode="t" horiz-adv-x="862" d="M41 981v98h342v422h98v-422h340v-98h-340v-981h-98v981h-342z" />
<glyph unicode="u" horiz-adv-x="1153" d="M123 453v626h98v-626q0 -74 27.5 -138.5t76 -112.5t113 -76t137.5 -28q74 0 138.5 28t112.5 76t76 112.5t28 138.5v626h100v-626q0 -94 -36 -176t-97 -143.5t-144 -97.5t-178 -36q-94 0 -176 36t-143 97.5t-97 143t-36 176.5z" />
<glyph unicode="v" horiz-adv-x="987" d="M41 1079h104l349 -944l346 944h106l-397 -1079h-6h-99h-8z" />
<glyph unicode="w" horiz-adv-x="1366" d="M41 1079h102l244 -897l246 897h100h2l244 -897l246 897h100l-293 -1079h-4h-98h-2l-244 893l-244 -893h-4h-98h-2z" />
<glyph unicode="x" horiz-adv-x="989" d="M41 0l393 539l-393 540h123l330 -456l331 456h123l-393 -540l393 -539h-123l-331 457l-330 -457h-123z" />
<glyph unicode="y" d="M123 -225h98q0 -74 27.5 -138.5t76 -112.5t113 -76t137.5 -28q74 0 138.5 28t112.5 76t76 112.5t28 138.5v397q-63 -78 -154.5 -125t-200.5 -47q-94 0 -176 36t-143 97.5t-97 143t-36 176.5v626h98v-626q0 -74 27.5 -138.5t76 -112.5t113 -76t137.5 -28q74 0 138.5 28 t112.5 76t76 112.5t28 138.5v626h98v-626v-678q0 -94 -36 -177t-97 -144.5t-143 -96.5t-177 -35q-94 0 -176 36t-143 97.5t-97 143.5t-36 176z" />
<glyph unicode="z" horiz-adv-x="1071" d="M82 0v39v59l774 883h-774v98h907v-39v-59h-2l-774 -883h776v-98h-907z" />
<glyph unicode="{" horiz-adv-x="796" d="M123 862l219 219v138v239h2q0 94 36 176t97.5 143.5t143 97.5t176.5 36v-99q-74 0 -138.5 -27.5t-112.5 -75.5t-76 -112.5t-28 -138.5h-2v-344v-74l-47 -47l-51 -51l-80 -80l80 -80l51 -51l47 -47v-74v-346h2q0 -74 28 -138.5t76 -112.5t111.5 -75.5t137.5 -27.5h2v-98 q-94 0 -176 35.5t-143.5 97t-97.5 143.5t-36 176h-2v240v139z" />
<glyph unicode="|" horiz-adv-x="344" d="M123 -84v1896h98v-1896h-98z" />
<glyph unicode="}" horiz-adv-x="796" d="M0 -88q74 0 138.5 27.5t112.5 75.5t75.5 113t27.5 138h2v344v74l47 47l52 51l80 80l-80 80l-52 51l-47 47v74v346h-2q0 74 -27.5 138.5t-75.5 112.5t-112.5 76t-138.5 28v-3v99v2q94 0 176 -36t143.5 -97.5t97.5 -143.5t36 -176h2v-241v-138l219 -219l-219 -221v-137 v-238h-2q0 -94 -36 -177t-97.5 -144.5t-143.5 -97t-176 -35.5v98v2z" />
<glyph unicode="~" horiz-adv-x="1091" d="M41 420q0 61 23.5 116.5t64.5 95.5t95.5 63.5t115.5 23.5q63 0 117.5 -23.5t95.5 -64.5l57 -53q55 -59 142 -60q84 0 142 58.5t58 142.5h99q0 -61 -23.5 -116.5t-64.5 -95.5t-95.5 -63.5t-115.5 -23.5q-63 0 -117.5 23.5t-95.5 64.5l-58 53q-55 59 -141 60 q-84 0 -142.5 -58.5t-58.5 -142.5h-98z" />
<glyph unicode="&#xad;" horiz-adv-x="956" d="M123 526v99h711v-99h-711z" />
<glyph unicode="&#xde;" horiz-adv-x="1970" d="M123 922l55 110l6 12q55 111 163 179.5t241 68.5q94 0 176 -35.5t143.5 -97t97 -143.5t35.5 -176v-387q0 -74 28 -138.5t76 -112.5t112.5 -76t138.5 -28t138 28t112.5 76t76 112.5t27.5 138.5v839h98v-839v-453q0 -94 -35.5 -176t-97 -143.5t-143.5 -97.5t-176 -36 t-176 36t-143.5 97.5t-97.5 143.5t-36 176h98q0 -74 28 -138.5t76 -112.5t112.5 -75.5t138.5 -27.5t138 27.5t112.5 75.5t76 112.5t27.5 138.5v170q-61 -78 -153.5 -124t-200.5 -46q-94 0 -176 36t-143.5 97.5t-97.5 143t-36 176.5v387q0 74 -27.5 138t-75.5 112.5 t-112.5 76t-138.5 27.5q-111 0 -197 -58.5t-127 -152.5l-43 -86l12 -82v-412v-124v-86q0 -51 19 -95h98h156v-98h-156h-151q-2 2 -2 3t-2 3q-12 16 -21.5 34.5t-17.5 37.5q-20 53 -21 115v647z" />
<glyph unicode="&#xe0d;" horiz-adv-x="1970" d="M123 922l55 110l6 12q55 111 163 179.5t241 68.5q94 0 176 -35.5t143.5 -97t97 -143.5t35.5 -176v-387q0 -74 28 -138.5t76 -112.5t112.5 -76t138.5 -28t138 28t112.5 76t76 112.5t27.5 138.5v839h98v-839v-453q0 -94 -35.5 -176t-97 -143.5t-143.5 -97.5t-176 -36 t-176 36t-143.5 97.5t-97.5 143.5t-36 176h98q0 -74 28 -138.5t76 -112.5t112.5 -75.5t138.5 -27.5t138 27.5t112.5 75.5t76 112.5t27.5 138.5v170q-61 -78 -153.5 -124t-200.5 -46q-94 0 -176 36t-143.5 97.5t-97.5 143t-36 176.5v387q0 74 -27.5 138t-75.5 112.5 t-112.5 76t-138.5 27.5q-111 0 -197 -58.5t-127 -152.5l-43 -86l12 -82v-412v-124v-86q0 -51 19 -95h98h156v-98h-156h-151q-2 2 -2 3t-2 3q-12 16 -21.5 34.5t-17.5 37.5q-20 53 -21 115v647z" />
<glyph unicode="&#xff;" horiz-adv-x="1941" />
<glyph unicode="&#x152;" horiz-adv-x="0" d="M-379 1622v98h100h99v-75v-23v-72h303v-98h-402v4v51v43v72h-100z" />
<glyph unicode="&#xf70b;" horiz-adv-x="0" d="M-379 1622v98h100h99v-75v-23v-72h303v-98h-402v4v51v43v72h-100z" />
<glyph unicode="&#x153;" horiz-adv-x="0" d="M-584 1989v98h101h98v-76v-22v-72h303v-98h-401v4v51v43v72h-101z" />
<glyph unicode="&#xf714;" horiz-adv-x="0" d="M-584 1989v98h101h98v-76v-22v-72h303v-98h-401v4v51v43v72h-101z" />
<glyph unicode="&#x160;" horiz-adv-x="0" d="M-627 1452v86q0 61 36 108.5t91 65.5q12 4 15 4q16 4 26 4h4h11h14h266v-98h-266h-21q-33 -4 -55 -26.5t-22 -57.5v-86h-99z" />
<glyph unicode="&#xf709;" horiz-adv-x="0" d="M-627 1452v86q0 61 36 108.5t91 65.5q12 4 15 4q16 4 26 4h4h11h14h266v-98h-266h-21q-33 -4 -55 -26.5t-22 -57.5v-86h-99z" />
<glyph unicode="&#x161;" horiz-adv-x="0" d="M-791 1634q0 61 36 108.5t91 65.5q12 4 15 4q16 4 26 5h5h10h14h266v-99h-266h-20q-33 -4 -55.5 -26.5t-22.5 -57.5t26 -61l107 108l18 -22l80 -80q16 16 27 41h102q-18 -80 -80 -131q-10 -8 -21 -15.5t-22 -13.5l-16 -8l-90 88l-88 -88q-18 0 -42 14.5t-46.5 39t-38 58 t-15.5 70.5z" />
<glyph unicode="&#xf712;" horiz-adv-x="0" d="M-791 1634q0 61 36 108.5t91 65.5q12 4 15 4q16 4 26 5h5h10h14h266v-99h-266h-20q-33 -4 -55.5 -26.5t-22.5 -57.5t26 -61l107 108l18 -22l80 -80q16 16 27 41h102q-18 -80 -80 -131q-10 -8 -21 -15.5t-22 -13.5l-16 -8l-90 88l-88 -88q-18 0 -42 14.5t-46.5 39t-38 58 t-15.5 70.5z" />
<glyph unicode="&#x178;" horiz-adv-x="0" d="M-627 1819v86q0 61 36 108t91 66q12 4 15 4q16 4 26 4h4h11h14h266v-98h-266h-21q-33 -4 -55 -27t-22 -57v-86h-99z" />
<glyph unicode="&#xf717;" horiz-adv-x="0" d="M-627 1819v86q0 61 36 108t91 66q12 4 15 4q16 4 26 4h4h11h14h266v-98h-266h-21q-33 -4 -55 -27t-22 -57v-86h-99z" />
<glyph unicode="&#x17d;" horiz-adv-x="0" d="M-307 1538v98h86v86h98v-86h86v-98h-86v-86h-98v86h-86z" />
<glyph unicode="&#xf70d;" horiz-adv-x="0" d="M-307 1538v98h86v86h98v-86h86v-98h-86v-86h-98v86h-86z" />
<glyph unicode="&#x17e;" horiz-adv-x="0" d="M-512 1903v98h86v86h98v-86h86v-98h-86v-86h-98v86h-86z" />
<glyph unicode="&#xf716;" horiz-adv-x="0" d="M-512 1903v98h86v86h98v-86h86v-98h-86v-86h-98v86h-86z" />
<glyph unicode="&#x192;" horiz-adv-x="0" d="M-1036 1452v98h422q-8 23 -9 49q0 61 43.5 104.5t104.5 43.5t104 -43t43 -105q0 -61 -43 -104t-104 -43h-561zM-524 1602q0 -20 14.5 -35t34.5 -15t34.5 14.5t14.5 35.5q0 20 -14.5 34.5t-34.5 14.5t-34.5 -14.5t-14.5 -34.5z" />
<glyph unicode="&#xf703;" horiz-adv-x="0" d="M-1036 1452v98h422q-8 23 -9 49q0 61 43.5 104.5t104.5 43.5t104 -43t43 -105q0 -61 -43 -104t-104 -43h-561zM-524 1602q0 -20 14.5 -35t34.5 -15t34.5 14.5t14.5 35.5q0 20 -14.5 34.5t-34.5 14.5t-34.5 -14.5t-14.5 -34.5z" />
<glyph unicode="&#x2c6;" horiz-adv-x="0" d="M-807 1452v49q0 53 21.5 99.5t62.5 80.5q10 8 21.5 15.5t21.5 13.5l16 8l91 -88l88 88l16 -8q20 -10 43 -29q61 -51 80 -131h100v-98h-96h-96h-2v49q0 51 -33 90l-102 -102l-19 22l-80 80q-35 -39 -35 -90v-49h-98z" />
<glyph unicode="&#xf707;" horiz-adv-x="0" d="M-807 1452v49q0 53 21.5 99.5t62.5 80.5q10 8 21.5 15.5t21.5 13.5l16 8l91 -88l88 88l16 -8q20 -10 43 -29q61 -51 80 -131h100v-98h-96h-96h-2v49q0 51 -33 90l-102 -102l-19 22l-80 80q-35 -39 -35 -90v-49h-98z" />
<glyph unicode="&#x2dc;" horiz-adv-x="0" d="M-582 1636v86h99v-86q0 -35 22.5 -57.5t54.5 -26.5h21h303v-98h-303h-14h-11h-4q-10 0 -26 4q-2 0 -15 4q-55 18 -91 65.5t-36 108.5z" />
<glyph unicode="&#xf710;" horiz-adv-x="0" d="M-582 1636v86h99v-86q0 -35 22.5 -57.5t54.5 -26.5h21h303v-98h-303h-14h-11h-4q-10 0 -26 4q-2 0 -15 4q-55 18 -91 65.5t-36 108.5z" />
<glyph unicode="&#xe01;" horiz-adv-x="1163" d="M123 922l55 110l6 12q55 111 163 179.5t241 68.5q94 0 176 -35.5t143.5 -97t97 -143.5t35.5 -176v-840h-98v840q0 74 -27.5 138t-75.5 112.5t-112.5 76t-138.5 27.5q-111 0 -197 -58.5t-127 -152.5l-43 -86l12 -82v-815h-98v840z" />
<glyph unicode="&#xe02;" horiz-adv-x="851" d="M0 1194v98h45h111h2h75h43q29 -31 51.5 -68.5t32.5 -80.5v-2l2 -4v-4q8 -31 9 -70v-80q-6 -47 -27.5 -91t-56.5 -79l-4 -4q-2 0 -2 -2q-53 -57 -54 -137v-371q0 -41 15.5 -78t43 -64.5t64.5 -44t80 -16.5t80 16.5t64.5 44t43 64.5t15.5 78v993h96v-993q0 -123 -88 -211 q-41 -43 -96.5 -65.5t-114.5 -22.5t-114.5 22.5t-96.5 65.5q-88 88 -88 211v371q0 59 22.5 114.5t65.5 96.5q0 2 1 2t1 2q39 39 51 98v80q0 10 -2 16q0 20 -10 53t-27 62h-233z" />
<glyph unicode="&#xe03;" horiz-adv-x="851" d="M0 1194v98h76h49h33l51 -51l49 51h51q2 -2 2 -3t2 -3q12 -16 21.5 -34.5t17.5 -37.5q2 -8 6 -20q14 -43 15 -94v-76q0 -123 -88 -211q0 -2 -1 -2t-1 -2q-55 -59 -56 -139v-371q0 -41 15.5 -78t43 -64.5t64.5 -44t80 -16.5t80 16.5t64.5 44t43 64.5t15.5 78v993h96v-993 q0 -123 -88 -211t-211 -88q-125 0 -213 88t-88 211v371q0 59 22.5 114.5t65.5 96.5l4 4q55 59 55 139v74v2q0 16 -2 31.5t-6 31.5l-59 -59l-70 70l-22 20h-117z" />
<glyph unicode="&#xe04;" d="M123 0v840q0 94 36 176t97 143.5t143 97t176 35.5t176.5 -35.5t143.5 -97t97 -143.5t36 -176v-840h-98v840q0 74 -28 138t-76 112.5t-112.5 76t-138.5 27.5t-138 -27.5t-112.5 -76t-76 -113t-27.5 -137.5v-195h287v-98h-287v-547h-98z" />
<glyph unicode="&#xe05;" d="M123 0v840v47v2q0 104 44 194.5t120 153.5q35 29 84 55l73 -73l131 -134l132 134l73 73q49 -27 84 -55q76 -63 120 -153.5t44 -194.5v-2v-47v-840h-98v840v47v2q0 86 -37 157.5t-98 120.5l-220 -221l-219 221q-61 -49 -98 -120.5t-37 -157.5v-2v-47v-195h287v-98h-287 v-547h-98z" />
<glyph unicode="&#xe06;" horiz-adv-x="1157" d="M0 1194v98h76h49h33l51 -51l49 51h51q2 -2 2 -3t2 -3q12 -16 21.5 -34.5t17.5 -37.5q2 -8 6 -20q14 -43 15 -94v-76q0 -123 -88 -211q0 -2 -1 -2t-1 -2q-55 -59 -56 -139v-217q0 -74 28 -138.5t76 -112.5t112.5 -76t138.5 -28t138 28t112.5 76t76 112.5t27.5 138.5v839 h98v-839q0 -94 -35.5 -176t-97 -143.5t-143.5 -97.5t-176 -36q-109 0 -200 47t-155 125v-172h-98v670q0 59 22.5 114.5t65.5 96.5l4 4q55 59 55 139v74v2q0 16 -2 31.5t-6 31.5l-59 -59l-70 70l-22 20h-117z" />
<glyph unicode="&#xe07;" horiz-adv-x="1030" d="M41 463h98q0 -74 28 -138.5t76 -112.5t112.5 -75.5t138.5 -27.5t132 25.5t99 68.5t62.5 100t21.5 123v778h-215v99h264h49v-877q0 -94 -29.5 -171t-84 -131t-130 -84t-169.5 -30t-176 36t-143.5 97.5t-97.5 143.5t-36 176z" />
<glyph unicode="&#xe08;" horiz-adv-x="1028" d="M0 840q0 94 36 176t97.5 143.5t143.5 97t176 35.5t176 -35.5t143.5 -97t97 -143.5t35.5 -176v-840h-98v547h-264v98h264v195q0 74 -27.5 138t-76 112.5t-113 76t-137.5 27.5q-74 0 -138.5 -27.5t-112.5 -76t-76 -113t-28 -137.5h-98z" />
<glyph unicode="&#xe09;" horiz-adv-x="1144" d="M82 547v98h133v-98v-94q0 -74 27.5 -138.5t76 -112.5t113 -76t137.5 -28q74 0 138.5 28t112.5 76t76 112.5t28 138.5v387q0 74 -28 138t-76 112.5t-112.5 76t-138.5 27.5t-138 -27.5t-112.5 -76t-76 -113t-27.5 -137.5h-98q0 94 35.5 176t97 143.5t143.5 97t176 35.5 t176 -35.5t143.5 -97t97.5 -143.5t36 -176v-840h-98v172q-61 -78 -153.5 -125t-201.5 -47q-94 0 -176 36t-143.5 97.5t-97 143t-35.5 176.5v94h-35z" />
<glyph unicode="&#xe0a;" horiz-adv-x="851" d="M0 1194v98h45h111h2h75h43q29 -31 51.5 -68.5t32.5 -80.5v-2l2 -4v-4q8 -31 9 -70v-80q-6 -47 -27.5 -91t-56.5 -79l-4 -4q-2 0 -2 -2q-53 -57 -54 -137v-371q0 -41 15.5 -78t43 -64.5t64.5 -44t80 -16.5t80 16.5t64.5 44t43 64.5t15.5 78v543q0 63 -45 108t-111 45v99 q66 0 111 44t45 107v47h96v-47q0 -59 -25.5 -110.5t-70.5 -85.5q-4 -4 -6 -5q4 -4 6 -4q45 -35 70.5 -87t25.5 -111v-543q0 -123 -88 -211q-41 -43 -96.5 -65.5t-114.5 -22.5t-114.5 22.5t-96.5 65.5q-88 88 -88 211v371q0 59 22.5 114.5t65.5 96.5q0 2 1 2t1 2q39 39 51 98 v80q0 10 -2 16q0 20 -10 53t-27 62h-233z" />
<glyph unicode="&#xe0b;" horiz-adv-x="851" d="M0 1194v98h76h49h33l51 -51l49 51h51q2 -2 2 -3t2 -3q12 -16 21.5 -34.5t17.5 -37.5q2 -8 6 -20q14 -43 15 -94v-76q0 -123 -88 -211q0 -2 -1 -2t-1 -2q-55 -59 -56 -139v-371q0 -41 15.5 -78t43 -64.5t64.5 -44t80 -16.5t80 16.5t64.5 44t43 64.5t15.5 78v543 q0 63 -45 108t-111 45v99q66 0 111 44t45 107v47h96v-47q0 -31 -6 -57q-23 -88 -90 -139q-4 -4 -6 -5q4 -4 6 -4q68 -55 90 -139q6 -29 6 -59v-543q0 -123 -88 -211t-211 -88q-125 0 -213 88t-88 211v371q0 59 22.5 114.5t65.5 96.5l4 4q55 59 55 139v74v2q0 16 -2 31.5 t-6 31.5l-59 -59l-70 70l-22 20h-117z" />
<glyph unicode="&#xe0c;" horiz-adv-x="1970" d="M123 922l55 110l6 12q55 111 163 179.5t241 68.5q94 0 176 -35.5t143.5 -97t97 -143.5t35.5 -176v-387q0 -74 28 -138.5t76 -112.5t112.5 -76t138.5 -28t138 28t112.5 76t76 112.5t27.5 138.5v839h98v-839q0 -94 -35.5 -176t-97 -143.5t-143.5 -97.5t-176 -36 q-109 0 -200 46t-155 124v-170h-98v840q0 74 -27.5 138t-75.5 112.5t-112.5 76t-138.5 27.5q-111 0 -197 -58.5t-127 -152.5l-43 -86l12 -82v-412v-124v-86q0 -51 19 -95h98h156v-98h-156h-151q-2 2 -2 3t-2 3q-12 16 -21.5 34.5t-17.5 37.5q-20 53 -21 115v647z" />
<glyph unicode="&#xe0e;" horiz-adv-x="1144" d="M0 -2v98h117v2v742l-13 82l56 110l6 12q55 111 162.5 179.5t240.5 68.5q94 0 176 -35.5t143.5 -97t97.5 -143.5t36 -176v-1198q0 -61 -21 -115q-8 -18 -17 -37t-21 -35q-4 -4 -5 -6h-151h-64l-174 176l-176 -176h-393v98h352l217 217l215 -217h23h98q18 43 19 95v1198 q0 74 -28 138t-76 112.5t-112.5 76t-138.5 27.5q-109 0 -195.5 -58.5t-127.5 -152.5l-43 -86l12 -82v-717v-98v-2h-215z" />
<glyph unicode="&#xe0f;" horiz-adv-x="1144" d="M0 -2v98h117v2v742l-13 82l56 110l6 12q55 111 162.5 179.5t240.5 68.5q94 0 176 -35.5t143.5 -97t97.5 -143.5t36 -176v-1198q0 -61 -21 -115q-8 -18 -17 -36.5t-21 -35.5q-4 -4 -5 -6h-57h-22h-43l-174 176l-177 -176l-176 176l-174 -176h-135v98h94l215 217l176 -176 l177 176l215 -217h2h24q20 41 21 95v1198q0 74 -28 138t-76 112.5t-112.5 76t-138.5 27.5q-111 0 -196.5 -58.5t-126.5 -152.5l-43 -86l12 -82v-717v-98v-2h-215z" />
<glyph unicode="&#xe10;" horiz-adv-x="1028" d="M0 -354h94l215 217l176 -176l177 176l215 -217h2h24q20 41 21 94h98q0 -61 -21 -115q-8 -18 -17 -36.5t-21 -34.5q-4 -4 -5 -7h-57h-22h-43l-174 177l-177 -177l-176 177l-174 -177h-135v99zM0 840q0 94 36 176t97.5 143.5t143 97t176.5 35.5q96 0 180 -36.5t145 -100.5 q31 41 31 90v47h96v-47q0 -31 -6 -57q-14 -61 -59 -113q31 -51 48 -110.5t17 -124.5v-840h-98v547h-264v98h264v195q0 74 -27.5 138t-76 112.5t-112.5 76t-138 27.5t-138.5 -27.5t-112.5 -76t-76 -113t-28 -137.5h-98z" />
<glyph unicode="&#xe11;" horiz-adv-x="1302" d="M0 1194v98h76h49h33l51 -51l49 51h16h35h64v-172q63 78 154 125t200 47q94 0 176 -35.5t143.5 -97t97.5 -143.5t36 -176v-840h-99v840q0 74 -27.5 138t-75.5 112.5t-112.5 76t-138.5 27.5t-138.5 -27.5t-112.5 -76t-75.5 -113t-27.5 -137.5v-840h-99v840v329l-65 -65 l-70 70l-22 20h-117z" />
<glyph unicode="&#xe12;" horiz-adv-x="1957" d="M123 193v647v47v2q0 104 44 194.5t118 153.5q37 29 84 55l75 -73l131 -134l132 134l73 73q49 -27 84 -55q76 -63 120 -153.5t44 -194.5v-2v-47v-400q2 -72 30.5 -134t77 -108t112 -73t134.5 -27q74 0 138.5 28t112.5 76t76 112.5t28 138.5v839h98v-839q0 -94 -36 -176 t-97.5 -143.5t-143 -97.5t-176.5 -36q-109 0 -200.5 46t-153.5 124v-170h-98v438v15v387v47v2q0 86 -37 157.5t-98 120.5l-220 -221l-219 221q-61 -49 -98 -120.5t-37 -157.5v-2v-47v-647q0 -51 19 -95h98h47h96q20 41 21 95h98q0 -57 -22 -115q-6 -18 -16.5 -36.5 t-22.5 -35.5q0 -2 -4 -6h-150h-47h-152q-2 2 -2 3t-2 3q-12 16 -21 34.5t-18 37.5q-20 53 -20 115z" />
<glyph unicode="&#xe13;" horiz-adv-x="1970" d="M123 922l55 110l6 12q55 111 163 179.5t241 68.5q94 0 176 -35.5t143.5 -97t97 -143.5t35.5 -176v-387q0 -74 28 -138.5t76 -112.5t112.5 -76t138.5 -28t138 28t112.5 76t76 112.5t27.5 138.5v839h98v-839v-453h-98v170q-61 -78 -153.5 -124t-200.5 -46q-94 0 -176 36 t-143.5 97.5t-97.5 143t-36 176.5v387q0 74 -27.5 138t-75.5 112.5t-112.5 76t-138.5 27.5q-111 0 -197 -58.5t-127 -152.5l-43 -86l12 -82v-412v-124v-86q0 -51 19 -95h98h156v-98h-156h-151q-2 2 -2 3t-2 3q-12 16 -21.5 34.5t-17.5 37.5q-20 53 -21 115v647z" />
<glyph unicode="&#xe14;" d="M123 197v643q0 94 36 176t97 143.5t143 97t176 35.5t176.5 -35.5t143.5 -97t97 -143.5t36 -176v-840h-98v840q0 74 -28 138t-76 112.5t-112.5 76t-138.5 27.5t-138 -27.5t-112.5 -76t-76 -113t-27.5 -137.5v-645q2 -41 30 -69t68 -28h46h20h98q18 45 19 95h98 q0 -61 -20 -115q-8 -18 -17.5 -36.5t-21.5 -35.5q-4 -4 -4 -6h-152h-20h-46q-82 0 -139 57.5t-57 139.5z" />
<glyph unicode="&#xe15;" d="M123 197v643v47v2q0 104 44 194.5t120 153.5q35 29 84 55l73 -73l131 -134l132 134l75 73q23 -12 43.5 -25.5t38.5 -29.5q76 -63 120 -153.5t44 -194.5v-2v-47v-840h-98v840v47v2q0 86 -37 157.5t-98 120.5l-220 -221l-219 221q-61 -49 -98 -120.5t-37 -157.5v-2v-47 v-645q2 -41 30 -69t68 -28h31h15h20h98q18 45 19 95h98q0 -61 -20 -115q-8 -18 -17.5 -36.5t-21.5 -35.5q-4 -4 -4 -6h-152h-20h-15h-31q-82 0 -139 57.5t-57 139.5z" />
<glyph unicode="&#xe16;" horiz-adv-x="1163" d="M123 922l55 110l6 12q55 111 163 179.5t241 68.5q94 0 176 -35.5t143.5 -97t97 -143.5t35.5 -176v-840h-98v840q0 74 -27.5 138t-75.5 112.5t-112.5 76t-138.5 27.5q-111 0 -197 -58.5t-127 -152.5l-43 -86l12 -82v-412v-124v-86q0 -51 19 -95h98h156v-98h-156h-151 q-2 2 -2 3t-2 3q-12 16 -21.5 34.5t-17.5 37.5q-20 53 -21 115v647z" />
<glyph unicode="&#xe17;" d="M123 0v840v452h98v-172q63 78 154 125t200 47q94 0 176.5 -35.5t143.5 -97t97 -143.5t36 -176v-840h-98v840q0 74 -28 138t-76 112.5t-112.5 76t-138.5 27.5t-138 -27.5t-112.5 -76t-76 -113t-27.5 -137.5v-840h-98z" />
<glyph unicode="&#x2219;" d="M123 0v840v452h98v-172q63 78 154 125t200 47q94 0 176.5 -35.5t143.5 -97t97 -143.5t36 -176v-840h-98v840q0 74 -28 138t-76 112.5t-112.5 76t-138.5 27.5t-138 -27.5t-112.5 -76t-76 -113t-27.5 -137.5v-840h-98z" />
<glyph unicode="&#xe18;" horiz-adv-x="1155" d="M123 348v299h98v-299q0 -51 20.5 -97t54.5 -80t79 -53.5t96 -19.5h236q45 0 86 18.5t71.5 49.5t48 70.5t17.5 87.5q0 76 -44 134t-112 81q-156 45 -242 69.5t-126.5 36.5t-51 15.5t-14.5 5.5q-53 16 -95 50t-71 81q-51 80 -51 172q0 68 25.5 127t69.5 102t102.5 68.5 t125.5 25.5h132h2q94 0 176 -35.5t143.5 -97t97 -143.5t35.5 -176h-98q0 74 -27.5 138t-77 112.5t-114 76t-137.5 27.5h-132q-47 0 -88 -17.5t-71.5 -48t-48 -71.5t-17.5 -86q0 -74 42 -131.5t108 -81.5q158 -47 244.5 -71.5t128.5 -37t52.5 -15.5t14.5 -5q109 -35 168 -133 q49 -74 49 -172q0 -68 -25.5 -126.5t-68.5 -102.5t-101.5 -69.5t-125.5 -25.5h-236q-72 0 -135.5 27.5t-110.5 75t-74.5 110.5t-27.5 135z" />
<glyph unicode="&#xe19;" d="M123 446v846h98v-846q0 -72 27.5 -136t76 -111t113 -75t137.5 -28q74 0 138.5 28t112.5 75t76 111.5t28 135.5v846h98v-846v-446h-98v168q-63 -78 -154.5 -123t-200.5 -45q-94 0 -176 35t-143 96.5t-97 142t-36 172.5z" />
<glyph unicode="&#xe1a;" horiz-adv-x="1153" d="M123 446v846h98v-846q0 -72 27.5 -136t76 -111t113 -75t137.5 -28q74 0 138.5 28t114 75t77 111.5t27.5 135.5v846h98v-846q0 -92 -36 -172.5t-97 -142t-144.5 -96.5t-177.5 -35t-176 35t-143 96.5t-97 142t-36 172.5z" />
<glyph unicode="&#xe1b;" d="M123 446v846h98v-846q0 -72 27.5 -136t76 -111t113 -75t137.5 -28q74 0 138.5 28t112.5 75t76 111.5t28 135.5v1276h98v-1276q0 -92 -36 -172.5t-97 -142t-143 -96.5t-177 -35q-94 0 -176 35t-143 96.5t-97 142t-36 172.5z" />
<glyph unicode="&#xe1c;" d="M123 397v2v47v846h49h49h215v-96h-215v-750v-47v-2q0 -84 37 -154.5t98 -119.5l219 217l220 -217q61 49 98 119.5t37 154.5v2v47v846h98v-846v-47v-2q0 -104 -44 -192t-118 -150q-39 -33 -84 -55l-75 74l-132 129l-131 -129l-73 -74q-49 23 -84 55q-76 61 -120 149.5 t-44 192.5z" />
<glyph unicode="&#xe1d;" horiz-adv-x="1153" d="M123 397v2v47v846h49h49h217v-96h-217v-750v-47v-2q0 -84 37 -154.5t98 -119.5l222 217l219 -217q61 49 98 119.5t37 154.5v2v47v1276h98v-1276v-47v-2q0 -104 -44 -192t-120 -150q-35 -33 -84 -55l-73 74l-131 129l-134 -129l-73 -74q-49 23 -84 55q-76 61 -120 149.5 t-44 192.5z" />
<glyph unicode="&#xe1e;" d="M123 379v2v47v864h98v-864v-47v-2q0 -111 64 -199l215 793h149l217 -793q63 88 64 199v2v47v864h98v-864v-47v-2q0 -102 -43 -189.5t-115 -148.5q0 -2 -2 -2l-2 -2q-12 -10 -25.5 -19.5t-25.5 -17.5l-33 117l-207 757l-206 -757l-33 -117q-12 8 -25.5 17.5t-25.5 19.5 l-4 2q0 2 -2 2q-72 61 -114 149.5t-42 188.5z" />
<glyph unicode="&#xe1f;" d="M123 379v2v47v864h98v-864v-47v-2q0 -111 64 -199l215 793h151l215 -793q63 88 64 199v2v47v1294h98v-1294v-47v-2q0 -102 -43 -189.5t-115 -148.5q0 -2 -2 -2l-2 -2q-12 -10 -25.5 -19.5t-25.5 -17.5l-33 117l-207 757l-206 -757l-33 -117q-12 8 -25.5 17.5t-25.5 19.5 l-4 2q0 2 -2 2q-72 61 -114 149.5t-42 188.5z" />
<glyph unicode="&#xe20;" horiz-adv-x="1144" d="M0 0v96h117v750l-13 80l56 110l6 13q57 111 163.5 177t239.5 66q94 0 176 -34.5t143.5 -96t97.5 -142.5t36 -173v-846h-98v846q0 72 -28 135t-76 110.5t-112.5 75t-138.5 27.5q-109 0 -195.5 -57.5t-127.5 -149.5l-43 -86l12 -80v2v-727v-80v-16h-215z" />
<glyph unicode="&#xe21;" horiz-adv-x="1153" d="M123 0v1292h98v-839q0 -74 27.5 -138.5t76 -112.5t113 -76t137.5 -28q74 0 138.5 28t114 76t77 112.5t27.5 138.5v839h98v-839q0 -94 -36 -176t-97 -143.5t-144 -97.5t-178 -36q-109 0 -199.5 46t-154.5 124v-170h-98z" />
<glyph unicode="&#xe22;" d="M123 453q0 111 49 205t131 157q-78 20 -129 84t-51 150q0 49 17.5 91t48 74.5t71.5 52t88 23.5v2h227v-98h-210q-59 0 -101.5 -43t-42.5 -102t42 -101.5t102 -42.5h210v-98q-74 0 -138 -27.5t-112.5 -76t-76 -113t-27.5 -137.5q0 -74 27.5 -138.5t76 -112.5t113 -76 t137.5 -28q74 0 138.5 28t112.5 76t76 112.5t28 138.5v839h98v-839q0 -94 -36 -176t-97 -143.5t-143 -97.5t-177 -36q-94 0 -176 36t-143 97.5t-97 143t-36 176.5z" />
<glyph unicode="&#xe23;" horiz-adv-x="1155" d="M123 453h100q0 -74 28 -138.5t76 -112.5t112.5 -76t138.5 -28h129q45 0 86 18.5t71.5 49.5t48 70.5t17.5 87.5q0 76 -44 134t-112 81q-156 45 -242 69.5t-126.5 36.5t-51 15.5t-14.5 5.5q-53 16 -95 50t-71 81q-51 80 -51 172q0 68 25.5 127t69.5 102t102.5 68.5 t125.5 25.5h132h2q94 0 176 -35.5t143.5 -97t97 -143.5t35.5 -176h-98q0 74 -27.5 138t-77 112.5t-114 76t-137.5 27.5h-132q-47 0 -88 -17.5t-71.5 -48t-48 -71.5t-17.5 -86q0 -74 42 -131.5t108 -81.5q158 -47 244.5 -71.5t128.5 -37t52.5 -15.5t14.5 -5q109 -35 168 -133 q49 -74 49 -172q0 -68 -25.5 -126.5t-68.5 -102.5t-101.5 -69.5t-125.5 -25.5h-129q-94 0 -177.5 36t-144.5 97.5t-97 143t-36 176.5z" />
<glyph unicode="&#xe24;" horiz-adv-x="1163" d="M123 922l55 110l6 12q55 111 163 179.5t241 68.5q94 0 176 -35.5t143.5 -97t97 -143.5t35.5 -176v-840v-549h-98v549v840q0 74 -27.5 138t-75.5 112.5t-112.5 76t-138.5 27.5q-111 0 -197 -58.5t-127 -152.5l-43 -86l12 -82v-412v-124v-86q0 -51 19 -95h98h156v-98h-156 h-151q-2 2 -2 3t-2 3q-12 16 -21.5 34.5t-17.5 37.5q-20 53 -21 115v647z" />
<glyph unicode="&#xe25;" horiz-adv-x="1110" d="M82 299q0 94 51 172q59 98 168 133q2 2 13.5 5t54.5 15.5t130 38t242 72.5q84 29 127 113q4 10 9.5 36.5t-5.5 63.5q-18 53 -51 98.5t-77 78t-97 51t-112 18.5q-74 0 -138.5 -27.5t-112.5 -76t-76 -113t-28 -137.5h-98q0 94 36 176t97 143.5t143 97t177 35.5 q80 0 151.5 -25.5t129.5 -70.5t99 -108.5t60 -137.5q6 -23 9 -47t3 -63v-840h-98v713q-49 -49 -119 -72q-4 -2 -13 -5t-51 -15.5t-127 -37t-241 -69.5q-68 -23 -112 -81t-44 -134q0 -84 57.5 -142.5t141.5 -58.5h143v-98h-143q-61 0 -115.5 23.5t-95.5 64.5t-64.5 95.5 t-23.5 115.5z" />
<glyph unicode="&#xe26;" horiz-adv-x="1144" d="M0 0v96h117v750l-13 80l56 110l6 13q57 111 163.5 177t239.5 66q94 0 176 -34.5t143.5 -96t97.5 -142.5t36 -173v-6v-840v-549h-98v549v840v6q0 72 -28 135t-76 110.5t-112.5 75t-138.5 27.5q-109 0 -195.5 -57.5t-127.5 -149.5l-43 -86l12 -80v2v-727v-80v-16h-215z" />
<glyph unicode="&#xe27;" horiz-adv-x="1071" d="M41 840q0 94 36 176t97.5 143.5t144 97t177.5 35.5q94 0 176 -35.5t143.5 -97t97 -143.5t35.5 -176v-387q0 -94 -35.5 -176t-97 -143.5t-143.5 -97.5t-176 -36v98q74 0 138 28t112.5 76t76 112.5t27.5 138.5v387q0 74 -27.5 138t-76 112.5t-113 76t-137.5 27.5 q-74 0 -138.5 -27.5t-112.5 -76t-76 -113t-28 -137.5h-100z" />
<glyph unicode="&#xe28;" d="M123 0v838q0 94 36 177t97 144.5t143 96t176 34.5q96 0 180.5 -35.5t145.5 -101.5q14 20 22.5 43t8.5 49v47h96v-47q0 -30 -6 -57q-16 -66 -59 -113q31 -53 48 -112.5t17 -124.5v-838h-98v838q0 74 -28 138t-76 112.5t-112.5 76t-138.5 27.5t-138 -27.5t-112.5 -76 t-76 -113t-27.5 -137.5v-193h287v-98h-287v-547h-98z" />
<glyph unicode="&#xe29;" horiz-adv-x="1153" d="M123 453v839h98v-839q0 -74 27.5 -138.5t76 -112.5t113 -76t137.5 -28q74 0 138.5 28t112.5 76t76 112.5t28 138.5v192h-94h-193v98h193h94v549h98v-549h94v-98h-94v-192q0 -94 -36 -176t-97 -143.5t-143 -97.5t-177 -36q-94 0 -176 36t-143 97.5t-97 143t-36 176.5z" />
<glyph unicode="&#xe2a;" horiz-adv-x="1110" d="M82 299q0 94 51 172q59 98 168 133q2 2 12.5 5t52.5 15.5t130 38t245 72.5q84 29 127 113q4 10 9.5 36.5t-5.5 63.5q-18 53 -51 98.5t-77 78t-97 51t-112 18.5q-74 0 -138.5 -27.5t-112.5 -76t-76 -113t-28 -137.5h-98q0 94 36 176t97 143.5t143 97t177 35.5 q96 0 180 -36.5t145 -100.5q31 41 31 90v47h96v-47q0 -31 -6 -57q-14 -61 -59 -113q18 -29 32.5 -61.5t22.5 -67.5q6 -23 8 -46t2 -60v-840h-98v713q-49 -49 -119 -72q-4 -2 -13 -5t-51 -15.5t-127 -37t-241 -69.5q-68 -23 -112 -81t-44 -134q0 -84 57.5 -142.5t141.5 -58.5 h143v-98h-143q-61 0 -115.5 23.5t-95.5 64.5t-64.5 95.5t-23.5 115.5z" />
<glyph unicode="&#xe2b;" d="M123 0v840v452h98v-385q63 78 154.5 125t199.5 47h3h200q63 0 107.5 44t44.5 108v61h98v-61q0 -86 -52 -152.5t-130 -89.5q84 -61 133 -155.5t49 -206.5v-627h-98v627q0 74 -28 138t-76 112.5t-112.5 76t-138.5 27.5t-138 -27.5t-112.5 -76t-76 -113t-27.5 -137.5v-627 h-98z" />
<glyph unicode="&#xe2c;" d="M123 379v2v47v864h98v-864v-47v-2q0 -111 64 -199l215 793h151l215 -793q63 88 64 199v2v47v864q0 59 -42 101.5t-102 42.5v98q59 0 101.5 42t42.5 101v2v66h98v-66q0 -59 -26.5 -109t-69.5 -85q43 -33 69.5 -83t26.5 -110v-864v-47v-2q0 -102 -43 -189.5t-115 -148.5 q0 -2 -2 -2l-2 -2q-12 -10 -25.5 -19.5t-25.5 -17.5l-33 117l-207 757l-206 -757l-33 -117q-12 8 -25.5 17.5t-25.5 19.5l-4 2q0 2 -2 2q-72 61 -114 149.5t-42 188.5z" />
<glyph unicode="&#xe2d;" d="M123 453v94v98h287v-98h-189v-94q0 -74 27.5 -138.5t76 -112.5t113 -76t137.5 -28q74 0 138.5 28t112.5 76t76 112.5t28 138.5v387q0 74 -28 138t-76 112.5t-112.5 76t-138.5 27.5t-138 -27.5t-112.5 -76t-76 -113t-27.5 -137.5h-98q0 94 36 176t97 143.5t143 97 t176 35.5t176.5 -35.5t143.5 -97t97 -143.5t36 -176v-387q0 -94 -36 -176t-97 -143.5t-143 -97.5t-177 -36q-94 0 -176 36t-143 97.5t-97 143t-36 176.5z" />
<glyph unicode="&#xe2e;" d="M123 453v94v98h287v-98h-189v-94q0 -74 27.5 -138.5t76 -112.5t113 -76t137.5 -28q74 0 138.5 28t112.5 76t76 112.5t28 138.5v387q0 74 -28 138t-76 112.5t-112.5 76t-138.5 27.5t-138 -27.5t-112.5 -76t-76 -113t-27.5 -137.5h-98q0 94 36 176t97 143.5t143 97 t176 35.5q96 0 180.5 -36.5t145.5 -100.5q31 41 31 90v47h96v-47q0 -30 -6 -57q-14 -63 -59 -111q31 -53 48 -112.5t17 -124.5v-387q0 -94 -36 -176t-97 -143.5t-143 -97.5t-177 -36q-94 0 -176 36t-143 97.5t-97 143t-36 176.5z" />
<glyph unicode="&#xe2f;" horiz-adv-x="897" d="M41 1079h98q0 -84 58.5 -142t142.5 -58t142.5 58t58.5 142h2q18 -10 34.5 -21t32.5 -26q6 -4 11.5 -9t11.5 -9q66 -63 103.5 -147.5t37.5 -182.5v-2v-47v-1088h-98v1088v47v2q0 66 -22.5 125t-63.5 106q-41 -61 -106.5 -98t-143.5 -37q-61 0 -115.5 23.5t-95.5 63.5 t-64.5 95.5t-23.5 116.5z" />
<glyph unicode="&#xe30;" horiz-adv-x="647" d="M123 272v4v95v94h98v-94h303v-99h-401zM123 887v4v94v94h98v-94h303v-98h-401z" />
<glyph unicode="&#xe31;" horiz-adv-x="0" d="M-377 1636v86h98v-86q0 -35 23 -57.5t55 -26.5h21h303v-98h-303h-15h-10h-4q-10 0 -27 4q-2 0 -14 4q-55 18 -91 65.5t-36 108.5z" />
<glyph unicode="&#xe32;" horiz-adv-x="1030" d="M0 840q0 94 36 176t97.5 143.5t143 97t176.5 35.5q94 0 177 -35.5t144.5 -97t97 -143.5t35.5 -176v-840h-100v840q0 74 -27.5 138t-76 112.5t-113 76t-137.5 27.5q-74 0 -138.5 -27.5t-112.5 -76t-76 -113t-28 -137.5h-98z" />
<glyph unicode="&#xe33;" horiz-adv-x="1030" d="M-414 1599q0 61 43.5 104.5t104.5 43.5t104 -43t43 -105q0 -61 -43 -104t-104 -43t-104.5 43t-43.5 104zM-315 1602q0 -20 14.5 -35t34.5 -15q23 0 36 14.5t13 35.5q0 20 -13.5 34.5t-35.5 14.5q-20 0 -34.5 -14.5t-14.5 -34.5zM0 840q0 94 36 176t97.5 143.5t143 97 t176.5 35.5q94 0 177 -35.5t144.5 -97t97 -143.5t35.5 -176v-840h-100v840q0 74 -27.5 138t-76 112.5t-113 76t-137.5 27.5q-74 0 -138.5 -27.5t-112.5 -76t-76 -113t-28 -137.5h-98z" />
<glyph unicode="&#xe34;" horiz-adv-x="0" d="M-831 1452v98h708v-98h-708z" />
<glyph unicode="&#xe35;" horiz-adv-x="0" d="M-831 1452v98h610v172h98v-172v-98h-98h-610z" />
<glyph unicode="&#xe36;" horiz-adv-x="0" d="M-831 1452v98h421q-8 23 -8 49q0 61 43.5 104.5t104.5 43.5t104 -43t43 -105q0 -61 -43 -104t-104 -43h-561zM-319 1602q0 -20 14.5 -35t34.5 -15t34.5 14.5t14.5 35.5q0 20 -14.5 34.5t-34.5 14.5t-34.5 -14.5t-14.5 -34.5z" />
<glyph unicode="&#xe37;" horiz-adv-x="0" d="M-831 1452v98h413v172h99v-172h98v172h98v-172v-98h-98h-98h-99h-413z" />
<glyph unicode="&#xe38;" horiz-adv-x="0" d="M-315 -160h94h92h6v-123v-278h-98v278v25h-94v98z" />
<glyph unicode="&#xe39;" horiz-adv-x="0" d="M-512 -160h94h60h39v-254q0 -20 14 -34.5t35 -14.5q20 0 34.5 14.5t14.5 34.5v254h98v-254q0 -61 -43 -104t-104 -43t-104.5 43t-43.5 104v156h-94v98z" />
<glyph unicode="&#xe3a;" horiz-adv-x="0" d="M-270 -233q0 31 21.5 52t51.5 21q31 0 52.5 -21t21.5 -52t-21.5 -52.5t-52.5 -21.5t-52 21.5t-21 52.5z" />
<glyph unicode="&#xe3b;" horiz-adv-x="0" />
<glyph unicode="&#xe3c;" horiz-adv-x="0" />
<glyph unicode="&#xe3d;" horiz-adv-x="0" />
<glyph unicode="&#xe3e;" horiz-adv-x="0" />
<glyph unicode="&#xe3f;" d="M123 0v98v391v99v393v98h98h256v125h98v-125h64q61 0 114.5 -23.5t93.5 -63.5t63.5 -93t23.5 -115q0 -63 -25.5 -118.5t-68.5 -96.5q84 -33 136 -106.5t52 -169.5q0 -61 -23.5 -114.5t-63.5 -93.5t-93 -62.5t-115 -22.5h-158v-125h-98v125h-256h-98zM221 98h256v391h-256 v-391zM221 588h256v393h-256v-393zM575 98h158q41 0 77 15.5t62.5 42t42 61.5t15.5 76q0 82 -57.5 139t-139.5 57h-158v-391zM575 588h66q39 0 75 15t62.5 43t42 62.5t15.5 75.5q0 82 -57.5 139.5t-139.5 57.5h-64v-393z" />
<glyph unicode="&#xe40;" horiz-adv-x="397" d="M123 0v1292h98v-1194h94v-98h-94h-94h-4z" />
<glyph unicode="&#xe41;" horiz-adv-x="700" d="M123 0v1292h98v-1194h94v-98h-94h-94h-4zM426 0v1292h98v-1194h94v-98h-94h-94h-4z" />
<glyph unicode="&#xe42;" horiz-adv-x="397" d="M-545 2351q0 70 49.5 119t118.5 49h604v-98h-604q-29 0 -49 -20.5t-20 -49.5q0 -23 12 -40t33 -25l12 -2l12 -5l354 -104l27 -8q109 -35 168 -133q49 -78 49 -172v-1764h94v-98h-94h-94h-4v1862q0 76 -44 134t-112 81q-4 0 -6 1t-4 1l-57 16l-316 92q-55 12 -92 58.5 t-37 105.5z" />
<glyph unicode="&#xe43;" horiz-adv-x="397" d="M-152 2216q0 63 24 118.5t66 96.5t97.5 64.5t118.5 23.5q61 0 116.5 -23.5t97.5 -64.5t66.5 -96.5t24.5 -118.5q0 -88 -34 -171t-99 -149l-2 -2q-51 -51 -77 -116.5t-26 -132.5v-1547h94v-98h-94h-94h-4v1645q0 88 32.5 170.5t100.5 148.5q51 53 76.5 118.5t25.5 133.5 q0 86 -59 145.5t-145 59.5q-43 0 -81 -16.5t-65.5 -44t-44 -65.5t-16.5 -81q0 -74 45 -129t114 -72v-98q-55 8 -102 34.5t-82 66.5t-54.5 91.5t-19.5 108.5z" />
<glyph unicode="&#xe44;" horiz-adv-x="397" d="M-438 2380v137v2l76 -76l131 -131l131 131l73 76q49 -27 84 -55q76 -63 120 -153.5t44 -194.5v-2v-48v-1968h94v-98h-94h-94h-4v2066v48v2q0 86 -37 157.5t-98 118.5l-219 -219z" />
<glyph unicode="&#xe45;" horiz-adv-x="1028" d="M0 840q0 94 36 176t97.5 143.5t143 97t176.5 35.5q94 0 176 -35.5t143.5 -97t97 -143.5t35.5 -176v-1325h-98v1325q0 74 -27.5 138t-76 112.5t-113 76t-137.5 27.5q-74 0 -138.5 -27.5t-112.5 -76t-76 -113t-28 -137.5h-98z" />
<glyph unicode="&#xe46;" horiz-adv-x="1110" d="M82 627v47v2q0 104 44 194.5t120 153.5q18 16 38.5 30.5t43.5 24.5l75 -73l132 -132l131 132l73 73q23 -10 44.5 -24.5t39.5 -30.5q76 -63 120 -153.5t44 -194.5v-2v-47v-1080h-98v1080v47v2q0 86 -37 157.5t-98 120.5l-219 -219l-220 219q-61 -49 -98 -120.5t-37 -157.5 v-2v-47h-2q2 -72 51.5 -121t120.5 -49v-101q-55 0 -104 21.5t-86 58.5t-57.5 86t-20.5 105z" />
<glyph unicode="&#xe47;" horiz-adv-x="0" d="M-586 1634q0 61 36 108.5t91 65.5q12 4 15 4q16 4 26 5h4h11h14h266v-99h-266h-21q-33 -4 -55 -26.5t-22 -57.5t26 -61l107 108l18 -22l80 -80q16 16 27 41h102q-18 -80 -80 -131q-10 -8 -21.5 -15.5t-21.5 -13.5l-16 -8l-90 88l-88 -88q-18 0 -42 14.5t-46.5 39t-38 58 t-15.5 70.5z" />
<glyph unicode="&#xe48;" horiz-adv-x="0" d="M-221 1792v270h98v-270h-98z" />
<glyph unicode="&#xe49;" horiz-adv-x="0" d="M-424 1962v98h100h99v-75v-23v-72h303v-98h-402v4v51v43v72h-100z" />
<glyph unicode="&#xe4a;" horiz-adv-x="0" d="M-602 1792v49q0 53 21.5 99.5t62.5 80.5q10 8 21.5 15.5t21.5 13.5l16 8l90 -88l88 88l17 -8q20 -10 43 -29q61 -51 80 -131h100v-98h-96h-96h-3v49q0 51 -32 90l-103 -102l-18 22l-80 80q-35 -39 -35 -90v-49h-98z" />
<glyph unicode="&#xe4b;" horiz-adv-x="0" d="M-307 1878v98h86v86h98v-86h86v-98h-86v-86h-98v86h-86z" />
<glyph unicode="&#xe4c;" horiz-adv-x="0" d="M-422 1792v86q0 61 36 108.5t91 65.5q12 4 14 4q16 4 27 4h4h10h15h266v-98h-266h-21q-33 -4 -55.5 -26.5t-22.5 -57.5v-86h-98z" />
<glyph unicode="&#xe4d;" horiz-adv-x="0" d="M-336 1599q0 61 43.5 104.5t104.5 43.5t104 -43t43 -105q0 -61 -43 -104t-104 -43t-104.5 43t-43.5 104zM-238 1602q0 -20 15 -35t35 -15q23 0 36 14.5t13 35.5q0 20 -13.5 34.5t-35.5 14.5q-20 0 -35 -14.5t-15 -34.5z" />
<glyph unicode="&#xe4e;" horiz-adv-x="0" d="M-432 1120q0 80 106 133q-31 25 -30 60q0 33 21.5 61.5t56 51t78.5 35t89 12.5q31 -2 64 -5.5t63 -15.5l23 -8v-66q-27 8 -46.5 15.5t-35.5 10.5t-31.5 5t-36.5 2q-29 0 -60.5 -8t-59 -22.5t-46 -32t-18.5 -35.5q0 -25 78 -43l22 -8v-52h-30q-4 0 -11.5 1t-11.5 1 q-18 0 -39.5 -10t-40 -24.5t-31 -29.5t-12.5 -28q0 -33 28 -53t73 -20q82 0 116 61l11 16h63l-18 -45q-51 -94 -172 -94q-35 0 -65 10.5t-51.5 28.5t-33.5 43t-12 53z" />
<glyph unicode="&#xe4f;" horiz-adv-x="843" d="M123 473q0 61 23.5 115.5t63.5 95.5t95.5 64.5t116.5 23.5t115.5 -23.5t95.5 -64.5t64.5 -95t23.5 -116q0 -61 -23.5 -116.5t-64.5 -95.5t-95.5 -63.5t-115.5 -23.5t-116.5 23.5t-95.5 63.5t-63.5 95.5t-23.5 116.5zM219 473q0 -84 58.5 -142.5t142.5 -58.5t142.5 58.5 t58.5 142.5t-58.5 142.5t-142.5 58.5t-142.5 -58.5t-58.5 -142.5zM348 471q0 31 21.5 52.5t52.5 21.5t52.5 -21.5t21.5 -52.5q0 -29 -21.5 -51.5t-52.5 -22.5t-52.5 22.5t-21.5 51.5z" />
<glyph unicode="&#xe50;" d="M123 453v174q0 94 36 176t97 143.5t143 97t176 35.5t176.5 -35.5t143.5 -97t97 -143.5t36 -176v-174q0 -94 -36 -176t-97 -143.5t-143 -97.5t-177 -36q-94 0 -176 36t-143 97.5t-97 143t-36 176.5zM221 453q0 -74 27.5 -138.5t76 -112.5t112.5 -76t138 -28t138.5 28 t112.5 76t76 112.5t28 138.5v174q0 74 -28 138t-76 112.5t-112.5 76t-138.5 27.5t-138 -27.5t-112.5 -76t-76 -113t-27.5 -137.5v-174z" />
<glyph unicode="&#xe51;" d="M123 453h98q0 -74 27.5 -138.5t76 -112.5t113 -76t137.5 -28q74 0 138.5 28t112.5 76t76 112.5t28 138.5v174q0 74 -28 138t-76 112.5t-112.5 76t-138.5 27.5q-66 0 -124 -22.5t-104 -61.5t-76.5 -92t-43.5 -115q0 -10 2 -20.5t9 -20.5q35 -59 196 -59v-98 q-215 0 -280 106q-8 14 -15 29q-8 20 -10 39.5t0 38.5q4 35 13.5 58t9.5 25q25 63 66.5 116.5t97 92.5t121.5 60.5t138 21.5q94 0 176.5 -34.5t143.5 -96t97 -143.5t36 -176v-176q0 -94 -36 -176t-97 -143.5t-143 -97.5t-177 -36q-94 0 -176 36t-143 97.5t-97 143t-36 176.5 z" />
<glyph unicode="&#xe52;" d="M123 453v839h98v-839q0 -74 27.5 -138.5t76 -112.5t113 -76t137.5 -28q74 0 138.5 28t112.5 76t76 112.5t28 138.5v174v47v2q0 86 -37 157.5t-98 120.5l-52 -51l-69 -69l-70 69l-51 51q-61 -49 -98 -120.5t-37 -157.5v-2v-47h-99v47v2q0 104 44.5 194.5t119.5 153.5 q35 29 84 55l74 -73l33 -33l33 33l73 73q49 -26 84 -55q76 -63 120 -153.5t44 -194.5v-2v-47v-174q0 -94 -36 -176t-97 -143.5t-143 -97.5t-177 -36q-94 0 -176 36t-143 97.5t-97 143t-36 176.5z" />
<glyph unicode="&#xe53;" d="M123 453v174v47v2q0 104 44 194.5t120 153.5q18 16 39.5 30.5t44.5 24.5l73 -73l131 -132l132 132l73 73q23 -10 44.5 -24.5t39.5 -30.5q76 -63 120 -153.5t44 -194.5v-2v-47v-627h-98v627v47v2q0 86 -37 157.5t-98 120.5l-220 -219l-219 219q-61 -49 -98 -120.5 t-37 -157.5v-2v-47v-174q0 -74 27.5 -138.5t76 -112.5t113 -76t137.5 -28v-98q-94 0 -176 36t-143 97.5t-97 143t-36 176.5z" />
<glyph unicode="&#xe54;" d="M123 453v176q0 94 36 176t97 143.5t143 96t176 34.5q55 0 108.5 15.5t99.5 44t83 67.5t58 86h104q-23 -68 -68 -125t-105 -98t-132 -64.5t-148 -23.5q-74 0 -138 -27.5t-112.5 -76t-76 -113t-27.5 -137.5v-174q0 -74 27.5 -138.5t76 -112.5t113 -76t137.5 -28h170 q-78 61 -124 153.5t-46 201.5h99q0 -74 27.5 -138.5t75.5 -112.5t112.5 -76t138.5 -28v-98h-453q-94 0 -176 36t-143 97.5t-97 143t-36 176.5z" />
<glyph unicode="&#xe55;" d="M123 453v176q0 76 23.5 144.5t65.5 124.5t100.5 97t127.5 64q-20 33 -20 78q0 66 45 110.5t110 44.5q66 0 111 -45t45 -110q0 -16 -2 -25q66 27 116 74t79 106h104q-23 -68 -68 -125t-105 -98t-132 -64.5t-148 -23.5h-8q-72 -2 -135 -30.5t-110.5 -76t-74 -112 t-26.5 -135.5v-174q0 -74 27.5 -138.5t76 -112.5t113 -76t137.5 -28h170q-78 61 -124 153.5t-46 201.5h99q0 -74 27.5 -138.5t75.5 -112.5t112.5 -76t138.5 -28v-98h-453q-94 0 -176 36t-143 97.5t-97 143t-36 176.5zM518 1137q0 -23 14.5 -39.5t36.5 -18.5h6 q23 0 40.5 17.5t17.5 40.5t-17.5 40t-40.5 17q-25 0 -41 -17t-16 -40z" />
<glyph unicode="&#xe56;" horiz-adv-x="1028" d="M0 1194v98q111 0 191.5 -68.5t101.5 -172.5q76 28 160 28q94 0 176 -34.5t143.5 -96t97 -143.5t35.5 -176v-176q0 -94 -35.5 -176t-97 -143.5t-143.5 -97.5t-176 -36q-61 0 -116.5 23.5t-95.5 63.5t-63.5 95.5t-23.5 116.5t23.5 116.5t63.5 95.5t95 63.5t117 23.5v-98 q-84 0 -142.5 -58.5t-58.5 -142.5t58.5 -142.5t142.5 -58.5q74 0 138 28t112.5 76t76 112.5t27.5 138.5v174q0 74 -27.5 138t-76 112.5t-113 76t-137.5 27.5q-109 0 -199 -61l-53 53v20q0 84 -58.5 142.5t-142.5 58.5z" />
<glyph unicode="&#xe57;" horiz-adv-x="1347" d="M123 453v174v47v2q0 104 44 194.5t120 153.5q18 16 39.5 30.5t44.5 24.5l73 -73l131 -132l132 132l73 73q23 -10 44.5 -24.5t39.5 -30.5q76 -63 120 -153.5t44 -194.5v-2v-47v-529q41 0 69.5 29t28.5 70v1095h99v-1095q0 -82 -57.5 -139.5t-139.5 -57.5h-98v627v47v2 q0 86 -37 157.5t-98 120.5l-220 -219l-219 219q-61 -49 -98 -120.5t-37 -157.5v-2v-47v-174q0 -74 27.5 -138.5t76 -112.5t113 -76t137.5 -28v-98q-94 0 -176 36t-143 97.5t-97 143t-36 176.5z" />
<glyph unicode="&#xe58;" d="M123 403v3v47v176q0 94 36 176t97 143.5t143 96t176 34.5q55 0 108.5 15.5t99.5 44t83 67.5t58 86h104q-23 -68 -68 -125t-105 -98t-132 -64.5t-148 -23.5q-74 0 -138 -27.5t-112.5 -76t-76 -113t-27.5 -137.5v-174v-4v-43v-3q0 -86 37 -157.5t98 -120.5l219 219 l220 -219q61 49 98 120.5t37 157.5v3v47h-129v98h227v-98v-47v-3q0 -104 -44 -194t-120 -154q-18 -16 -39.5 -30.5t-44.5 -24.5l-73 74l-132 131l-131 -131l-73 -74q-23 10 -44.5 24.5t-39.5 30.5q-76 63 -120 153.5t-44 194.5z" />
<glyph unicode="&#xe59;" horiz-adv-x="1224" d="M123 299v530q0 51 19.5 97.5t53 80t80 53t97.5 19.5q61 0 114.5 -27.5t87.5 -74.5q35 47 87.5 74.5t113.5 27.5q53 0 106.5 16.5t99.5 45t82 66.5t56 85h105q-23 -68 -68 -125t-105.5 -98t-132 -64.5t-147.5 -23.5q-53 -2 -93 -36t-50 -85l311 -823l-90 -35l-315 827 l-9 21l-8 24l-6 15q-16 41 -54 66.5t-85 25.5q-63 0 -107.5 -45t-44.5 -107v-530q0 -84 58.5 -142.5t142.5 -58.5v-98q-61 0 -116.5 23.5t-95.5 63.5t-63.5 95.5t-23.5 116.5z" />
<glyph unicode="&#xe5a;" horiz-adv-x="1173" d="M123 1079h98q0 -84 58.5 -142t142.5 -58t142.5 58t58.5 142h2q18 -10 34.5 -21t32.5 -26q6 -4 11.5 -9t11.5 -9q66 -63 103.5 -147.5t37.5 -182.5v-2v-47v-1088h-98v1088v47v2q0 66 -22.5 125t-63.5 106q-41 -61 -106.5 -98t-143.5 -37q-61 0 -115.5 23.5t-95.5 63.5 t-64.5 95.5t-23.5 116.5zM952 -451v1270h99v-1270h-99z" />
<glyph unicode="&#xe5b;" horiz-adv-x="1351" />
<glyph unicode="&#x2000;" horiz-adv-x="1259" />
<glyph unicode="&#x2001;" horiz-adv-x="2519" />
<glyph unicode="&#x2002;" horiz-adv-x="1259" />
<glyph unicode="&#x2003;" horiz-adv-x="2519" />
<glyph unicode="&#x2004;" horiz-adv-x="839" />
<glyph unicode="&#x2005;" horiz-adv-x="629" />
<glyph unicode="&#x2006;" horiz-adv-x="419" />
<glyph unicode="&#x2007;" horiz-adv-x="419" />
<glyph unicode="&#x2008;" horiz-adv-x="314" />
<glyph unicode="&#x2009;" horiz-adv-x="503" />
<glyph unicode="&#x200a;" horiz-adv-x="139" />
<glyph unicode="&#x200b;" horiz-adv-x="0" />
<glyph unicode="&#x2010;" horiz-adv-x="956" d="M123 526v99h711v-99h-711z" />
<glyph unicode="&#x2011;" horiz-adv-x="956" d="M123 526v99h711v-99h-711z" />
<glyph unicode="&#x2012;" horiz-adv-x="956" d="M123 526v99h711v-99h-711z" />
<glyph unicode="&#x2013;" horiz-adv-x="944" d="M123 477v101h698v-101h-698z" />
<glyph unicode="&#x2014;" horiz-adv-x="903" d="M0 477v101h903v-101h-903z" />
<glyph unicode="&#x2018;" horiz-adv-x="393" d="M123 1081v41q2 16 5 31.5t9 30.5q8 23 22.5 39t30.5 32q18 14 37 23q2 0 23 8q8 4 20 6v-102q-25 -12 -43 -43q43 -20 43 -66q0 -31 -21.5 -52t-51.5 -21q-18 0 -31 6q-23 10 -31 27.5t-12 39.5z" />
<glyph unicode="&#x2019;" horiz-adv-x="393" d="M123 1008v102q31 14 43 41q-43 20 -43 68q0 31 21.5 52t52.5 21q14 0 30 -8q23 -10 32 -26.5t11 -38.5v-43q-2 -14 -5 -30t-7 -30q-14 -41 -55 -72q-16 -16 -37 -24q-2 -2 -23 -6q-8 -2 -20 -6z" />
<glyph unicode="&#x201a;" horiz-adv-x="0" d="M-1036 1452v98h610v172h98v-172v-98h-98h-610z" />
<glyph unicode="&#xf702;" horiz-adv-x="0" d="M-1036 1452v98h610v172h98v-172v-98h-98h-610z" />
<glyph unicode="&#x201e;" horiz-adv-x="0" d="M-1036 1452v98h413v172h99v-172h98v172h98v-172v-98h-98h-98h-99h-413z" />
<glyph unicode="&#xf704;" horiz-adv-x="0" d="M-1036 1452v98h413v172h99v-172h98v172h98v-172v-98h-98h-98h-99h-413z" />
<glyph unicode="&#x2020;" horiz-adv-x="0" d="M-426 1452v270h98v-270h-98z" />
<glyph unicode="&#xf705;" horiz-adv-x="0" d="M-426 1452v270h98v-270h-98z" />
<glyph unicode="&#x2021;" horiz-adv-x="0" d="M-584 1622v98h101h98v-75v-23v-72h303v-98h-401v4v51v43v72h-101z" />
<glyph unicode="&#xf706;" horiz-adv-x="0" d="M-584 1622v98h101h98v-75v-23v-72h303v-98h-401v4v51v43v72h-101z" />
<glyph unicode="&#x2022;" horiz-adv-x="702" d="M94 389q0 51 20.5 98.5t56.5 82t82 55t97 20.5t98.5 -20.5t82 -55t55 -82t20.5 -98.5t-20.5 -97t-55 -82t-82 -56.5t-98.5 -20.5t-98 20.5t-82 55.5t-55.5 81t-20.5 99z" />
<glyph unicode="&#x2026;" horiz-adv-x="983" d="M123 74q0 31 21.5 52t52.5 21t52 -21t21 -52t-21.5 -52.5t-51.5 -21.5q-31 0 -52.5 21.5t-21.5 52.5zM418 74q0 31 21.5 52t52.5 21t52 -21t21 -52t-21.5 -52.5t-51.5 -21.5q-31 0 -52.5 21.5t-21.5 52.5zM713 74q0 31 21.5 52t51.5 21q31 0 52.5 -21t21.5 -52 t-21.5 -52.5t-52.5 -21.5t-52 21.5t-21 52.5z" />
<glyph unicode="&#x202f;" horiz-adv-x="503" />
<glyph unicode="&#x2030;" horiz-adv-x="0" d="M-512 1538v98h86v86h98v-86h86v-98h-86v-86h-98v86h-86z" />
<glyph unicode="&#xf708;" horiz-adv-x="0" d="M-512 1538v98h86v86h98v-86h86v-98h-86v-86h-98v86h-86z" />
<glyph unicode="&#x2039;" horiz-adv-x="0" d="M-221 1452v270h98v-270h-98z" />
<glyph unicode="&#xf70a;" horiz-adv-x="0" d="M-221 1452v270h98v-270h-98z" />
<glyph unicode="&#x203a;" horiz-adv-x="0" d="M-426 1819v270h98v-270h-98z" />
<glyph unicode="&#xf713;" horiz-adv-x="0" d="M-426 1819v270h98v-270h-98z" />
<glyph unicode="&#x205f;" horiz-adv-x="629" />
<glyph unicode="&#x20ac;" horiz-adv-x="1028" d="M0 840q0 94 36 176t97.5 143.5t143 97t176.5 35.5q96 0 180 -36.5t145 -100.5q31 41 31 90v47h96v-47q0 -31 -6 -57q-14 -61 -59 -113q31 -51 48 -110.5t17 -124.5v-840h-98v547h-264v98h264v195q0 74 -27.5 138t-76 112.5t-112.5 76t-138 27.5t-138.5 -27.5t-112.5 -76 t-76 -113t-28 -137.5h-98z" />
<glyph unicode="&#xf700;" horiz-adv-x="1028" d="M0 840q0 94 36 176t97.5 143.5t143 97t176.5 35.5q96 0 180 -36.5t145 -100.5q31 41 31 90v47h96v-47q0 -31 -6 -57q-14 -61 -59 -113q31 -51 48 -110.5t17 -124.5v-840h-98v547h-264v98h264v195q0 74 -27.5 138t-76 112.5t-112.5 76t-138 27.5t-138.5 -27.5t-112.5 -76 t-76 -113t-28 -137.5h-98z" />
<glyph unicode="&#x2122;" horiz-adv-x="0" d="M-459 1599q0 61 43.5 104.5t104.5 43.5t104 -43t43 -105q0 -61 -43 -104t-104 -43t-104.5 43t-43.5 104zM-360 1602q0 -20 14.5 -35t34.5 -15q23 0 36 14.5t13 35.5q0 20 -13.5 34.5t-35.5 14.5q-20 0 -34.5 -14.5t-14.5 -34.5z" />
<glyph unicode="&#xf711;" horiz-adv-x="0" d="M-459 1599q0 61 43.5 104.5t104.5 43.5t104 -43t43 -105q0 -61 -43 -104t-104 -43t-104.5 43t-43.5 104zM-360 1602q0 -20 14.5 -35t34.5 -15q23 0 36 14.5t13 35.5q0 20 -13.5 34.5t-35.5 14.5q-20 0 -34.5 -14.5t-14.5 -34.5z" />
<glyph unicode="&#x25cc;" horiz-adv-x="1048" d="M96 430q0 18 14.5 32.5t34.5 14.5q16 0 32 -14t16 -33q0 -20 -14.5 -34.5t-33.5 -14.5q-20 0 -34.5 14.5t-14.5 34.5zM211 162q0 20 14.5 33.5t32.5 13.5q20 0 34.5 -13.5t14.5 -33.5t-14 -33.5t-35 -13.5q-18 0 -32.5 13t-14.5 34zM211 694q0 25 14.5 37t32.5 12 q20 0 34.5 -12t14.5 -37q0 -18 -14 -32.5t-35 -14.5q-18 0 -32.5 14.5t-14.5 32.5zM479 47q0 20 13.5 33.5t33.5 13.5q18 0 33.5 -13t15.5 -34q0 -18 -15 -32.5t-34 -14.5q-20 0 -33.5 14.5t-13.5 32.5zM479 811q0 18 13.5 31.5t33.5 13.5q18 0 33.5 -13.5t15.5 -31.5 q0 -20 -15 -33.5t-34 -13.5q-20 0 -33.5 13.5t-13.5 33.5zM743 162q0 20 15 33.5t35 13.5q18 0 32.5 -13.5t14.5 -33.5t-13.5 -33.5t-33.5 -13.5t-35 13t-15 34zM743 694q0 25 15 37t35 12q18 0 32.5 -12t14.5 -37q0 -18 -13.5 -32.5t-33.5 -14.5t-35 14.5t-15 32.5z M858 430q0 18 13.5 32.5t31.5 14.5q23 0 36 -14t13 -33q0 -20 -12 -34.5t-37 -14.5q-18 0 -31.5 14.5t-13.5 34.5z" />
<glyph unicode="&#x25fc;" horiz-adv-x="1075" d="M0 0v1075h1075v-1075h-1075z" />
<glyph unicode="&#xf701;" horiz-adv-x="0" d="M-1036 1452v98h708v-98h-708z" />
<glyph unicode="&#xf70c;" horiz-adv-x="0" d="M-602 1452v49q0 53 21.5 99.5t62.5 80.5q10 8 21.5 15.5t21.5 13.5l16 8l90 -88l88 88l17 -8q20 -10 43 -29q61 -51 80 -131h100v-98h-96h-96h-3v49q0 51 -32 90l-103 -102l-18 22l-80 80q-35 -39 -35 -90v-49h-98z" />
<glyph unicode="&#xf70e;" horiz-adv-x="0" d="M-422 1452v86q0 61 36 108.5t91 65.5q12 4 14 4q16 4 27 4h4h10h15h266v-98h-266h-21q-33 -4 -55.5 -26.5t-22.5 -57.5v-86h-98z" />
<glyph unicode="&#xf70f;" horiz-adv-x="1970" d="M123 922l55 110l6 12q55 111 163 179.5t241 68.5q94 0 176 -35.5t143.5 -97t97 -143.5t35.5 -176v-387q0 -61 19.5 -116.5t54.5 -101t83 -78t103 -46.5q14 -4 27.5 -6.5t30.5 -4.5q-16 2 -29.5 4t-28.5 7q37 -8 78 -13h4h2h11q74 0 138 28t112.5 76t76 112.5t27.5 138.5 v839h98v-839v-2q0 -94 -35.5 -176t-97 -143.5t-143.5 -96.5t-176 -35q-23 0 -46.5 2t-45.5 6q-78 16 -143.5 57t-114 99.5t-76 132.5t-27.5 156v387q0 74 -27.5 138t-75.5 112.5t-112.5 76t-138.5 27.5q-111 0 -197 -58.5t-127 -152.5l-43 -86l12 -82v-412v-124v-86 q0 -51 19 -95h98h156v-98h-156h-151q-2 2 -2 3t-2 3q-12 16 -21.5 34.5t-17.5 37.5q-20 53 -21 115v647z" />
<glyph unicode="&#xf715;" horiz-adv-x="0" d="M-807 1819v49q0 53 21.5 99t62.5 81q10 8 21.5 15.5t21.5 13.5l16 8l91 -88l88 88l16 -8q20 -10 43 -29q61 -51 80 -131h100v-98h-96h-96h-2v49q0 51 -33 90l-102 -103l-19 23l-80 80q-35 -39 -35 -90v-49h-98z" />
<glyph unicode="&#xf718;" horiz-adv-x="0" d="M-315 -655h94h92h6v-123v-279h-98v279v24h-94v99z" />
<glyph unicode="&#xf719;" horiz-adv-x="0" d="M-512 -655h94h60h39v-254q0 -20 14 -34.5t35 -14.5q20 0 34.5 14t14.5 35v254h98v-254q0 -61 -43 -104.5t-104 -43.5t-104.5 43t-43.5 105v155h-94v99z" />
<glyph unicode="&#xf71a;" horiz-adv-x="0" d="M-270 -729q0 31 21.5 52.5t51.5 21.5q31 0 52.5 -21.5t21.5 -52.5t-21.5 -52.5t-52.5 -21.5t-52 21.5t-21 52.5z" />
<glyph d="M123 379v2v47v864h98v-864v-47v-2q0 -111 64 -199l239 881h103l239 -881q63 88 64 199v2v47v412q0 59 -42 101t-102 42v98q59 0 101.5 43t42.5 103v65h98v-65q0 -59 -26.5 -109.5t-69.5 -85.5q43 -33 69.5 -83t26.5 -109v-412v-47v-2q0 -102 -43 -189.5t-115 -148.5 q0 -2 -2 -2l-2 -2q-12 -10 -25.5 -19.5t-25.5 -17.5l-33 117l-207 757l-206 -757l-33 -117q-12 8 -25.5 17.5t-25.5 19.5l-4 4v-2q0 2 -2 2q-72 61 -114 149.5t-42 188.5z" />
<glyph horiz-adv-x="1030" d="M-612 1599q0 61 43 104.5t104 43.5t104.5 -43t43.5 -105q0 -61 -43 -104t-105 -43q-61 0 -104 43t-43 104zM-514 1602q0 -20 14.5 -35t34.5 -15q23 0 36 14.5t13 35.5q0 20 -13 34.5t-36 14.5q-20 0 -34.5 -14.5t-14.5 -34.5zM0 840q0 94 36 176t97.5 143.5t143 97 t176.5 35.5q94 0 177 -35.5t144.5 -97t97 -143.5t35.5 -176v-840h-100v840q0 74 -27.5 138t-76 112.5t-113 76t-137.5 27.5q-74 0 -138.5 -27.5t-112.5 -76t-76 -113t-28 -137.5h-98z" />
<glyph horiz-adv-x="0" d="M-653 1120q-1 80 108 133q-31 25 -30 60q0 33 22.5 62.5t57 51t78.5 34t87 12.5q33 0 65 -5.5t62 -15.5l21 -8v-66q-27 8 -45.5 15.5t-35 10.5t-31.5 5t-36 2q-27 0 -59.5 -8t-60 -22.5t-46 -32t-18.5 -35.5q0 -25 76 -43l24 -8v-52h-32q-2 0 -8.5 1t-12.5 1 q-20 0 -42.5 -10t-40 -25.5t-29 -31t-11.5 -25.5q0 -33 29 -53t69 -20q86 0 119 61l8 16h66l-20 -45q-51 -94 -173 -94q-35 0 -64.5 10.5t-51 28.5t-33.5 43t-12 53z" />
</font>
</defs>
</svg>
